<svg width="56" height="56" viewBox="0 0 56 56" fill="none" xmlns="http://www.w3.org/2000/svg">
<path fill-rule="evenodd" clip-rule="evenodd" d="M18.9841 10.3321C19.007 11.3171 18.8328 12.2966 18.4717 13.2133C18.1106 14.1299 17.57 14.9651 16.8815 15.6698C16.193 16.3745 15.3706 16.9345 14.4626 17.3168C13.5546 17.6991 12.5793 17.8961 11.5941 17.8961C10.6089 17.8961 9.63363 17.6991 8.72563 17.3168C7.81763 16.9345 6.99521 16.3745 6.30672 15.6698C5.61823 14.9651 5.07755 14.1299 4.71646 13.2133C4.35538 12.2966 4.18118 11.3171 4.20409 10.3321C4.249 8.40194 5.04731 6.56593 6.42831 5.21669C7.80931 3.86744 9.66339 3.11206 11.5941 3.11206C13.5248 3.11206 15.3789 3.86744 16.7599 5.21669C18.1409 6.56593 18.9392 8.40194 18.9841 10.3321ZM28.2641 22.7161C29.3541 22.7161 30.3995 23.1491 31.1703 23.9199C31.9411 24.6907 32.3741 25.7361 32.3741 26.8261C32.3741 27.9162 31.9411 28.9616 31.1703 29.7323C30.3995 30.5031 29.3541 30.9361 28.2641 30.9361H19.6241L16.6161 52.5521C16.4829 53.5078 16.0088 54.3832 15.281 55.0168C14.5533 55.6505 13.621 55.9997 12.6561 56.0001H10.6401C9.65351 55.9999 8.70183 55.635 7.96792 54.9757C7.23401 54.3163 6.76966 53.409 6.66409 52.4281L5.53609 41.9881H4.84809C3.8268 41.9871 2.84765 41.5809 2.12549 40.8587C1.40333 40.1366 0.997153 39.1574 0.996094 38.1361V33.3121C0.998214 30.5022 2.11593 27.8081 4.10359 25.822C6.09124 23.8358 8.78618 22.7201 11.5961 22.7201L28.2641 22.7161Z" fill="#F5F5F5"/>
<path fill-rule="evenodd" clip-rule="evenodd" d="M29.0361 35.904H49.6081C52.5881 35.904 55.0001 33.488 55.0001 30.508V5.4C55.0001 2.416 52.5841 0 49.6081 0H18.4321C19.8375 0.927934 21.0388 2.13286 21.9625 3.54105C22.8862 4.94924 23.5129 6.53109 23.8042 8.18982C24.0955 9.84854 24.0453 11.5493 23.6567 13.1879C23.2681 14.8266 22.5493 16.3687 21.5441 17.72H28.2641C30.6144 17.7176 32.8747 18.6239 34.5723 20.2493C36.2699 21.8747 37.2735 24.0935 37.3732 26.4417C37.4729 28.7899 36.661 31.0857 35.1072 32.8491C33.5535 34.6126 31.3782 35.7072 29.0361 35.904Z" fill="#8FBFFA"/>
</svg>
