<svg width="56" height="56" viewBox="0 0 56 56" fill="none" xmlns="http://www.w3.org/2000/svg">
<path d="M27.9815 46.6667C28.0951 47.0867 28.2514 47.4973 28.4505 47.8987C28.6496 48.3016 28.8736 48.6687 29.1225 49H13.1042C12.0293 49 11.1325 48.6407 10.4138 47.922C9.69516 47.2033 9.33505 46.3066 9.3335 45.2317V10.7683C9.3335 9.695 9.69361 8.799 10.4138 8.08033C11.1341 7.36167 12.0308 7.00156 13.1042 7H38.2318C39.3052 7 40.2019 7.36011 40.9222 8.08033C41.6424 8.80056 42.0017 9.69733 42.0002 10.7707V27.3817C41.6579 27.3334 41.2691 27.3093 40.8335 27.3093C40.3979 27.3093 40.0091 27.3327 39.6668 27.3793V10.773C39.6668 10.4137 39.5175 10.0839 39.2188 9.78367C38.9202 9.48344 38.5904 9.33333 38.2295 9.33333H26.8335V23.7813L22.1668 21L17.5002 23.7813V9.33333H13.1042C12.7448 9.33333 12.4151 9.48267 12.1148 9.78133C11.8146 10.08 11.6653 10.409 11.6668 10.7683V45.2317C11.6668 45.5894 11.8162 45.9184 12.1148 46.2187C12.4135 46.5189 12.7425 46.6682 13.1018 46.6667H27.9815ZM27.9815 9.33333H11.6668H39.6668H26.8335H27.9815Z" fill="#F5F5F5"/>
<path d="M34.2183 47.8987C36.029 49.7093 38.234 50.6147 40.8333 50.6147C43.4358 50.6178 45.6416 49.7124 47.4507 47.8987C49.2598 46.0849 50.1651 43.8791 50.1667 41.2813C50.1682 38.6836 49.2629 36.4786 47.4507 34.6663C45.6384 32.8541 43.4327 31.948 40.8333 31.948C38.234 31.948 36.029 32.8541 34.2183 34.6663C32.4061 36.4786 31.5 38.6836 31.5 41.2813C31.5 43.8822 32.4061 46.088 34.2183 47.8987Z" fill="#F5F5F5"/>
<path d="M45.1849 41.1926L38.8149 45.6796V36.7056L45.1849 41.1926Z" fill="#8FBFFA"/>
</svg>
