<svg width="56" height="56" viewBox="0 0 56 56" fill="none" xmlns="http://www.w3.org/2000/svg">
<path d="M27.9998 43.7966C26.1021 42.4961 24.0643 41.4982 21.8865 40.8029C19.7087 40.1075 17.4687 39.7591 15.1665 39.7575C13.9532 39.7575 12.7601 39.8587 11.5872 40.0609C10.4158 40.2647 9.27561 40.5913 8.1665 41.0409C7.32028 41.3784 6.52539 41.2766 5.78184 40.7352C5.03828 40.1939 4.6665 39.4457 4.6665 38.4906V15.9389C4.6665 15.3618 4.81817 14.8259 5.1215 14.3312C5.42484 13.8365 5.85028 13.4928 6.39784 13.2999C7.76828 12.6963 9.19395 12.2584 10.6748 11.9862C12.1557 11.714 13.6529 11.5779 15.1665 11.5779C17.7161 11.5779 19.9794 11.9007 21.9565 12.5462C23.9321 13.1918 25.9527 14.1508 28.0185 15.4232C28.3856 15.6254 28.6687 15.8977 28.8678 16.2399C29.0669 16.5821 29.1665 16.9749 29.1665 17.4182V40.4109C31.0581 39.3562 32.9659 38.594 34.8902 38.1242C36.8144 37.6544 38.7954 37.4211 40.8332 37.4242C42.2332 37.4242 43.4916 37.5105 44.6085 37.6832C45.7254 37.8559 46.7108 38.0861 47.5648 38.3739C47.9226 38.5232 48.2516 38.5007 48.5518 38.3062C48.8521 38.1118 49.0014 37.8053 48.9998 37.3869V13.0525C49.1352 13.0977 49.2674 13.1474 49.3965 13.2019C49.5272 13.2548 49.6547 13.317 49.7792 13.3885C50.2972 13.6141 50.6861 13.9587 50.9458 14.4222C51.2056 14.8858 51.3347 15.3913 51.3332 15.9389V38.4906C51.3332 39.4457 50.9318 40.1791 50.1292 40.6909C49.3249 41.2011 48.4694 41.2874 47.5625 40.9499C46.4829 40.5299 45.3801 40.2265 44.2538 40.0399C43.1276 39.8517 41.9874 39.7575 40.8332 39.7575C38.5309 39.7575 36.2909 40.106 34.1132 40.8029C31.9354 41.4998 29.8976 42.4969 27.9998 43.7942" fill="#F5F5F5"/>
<path d="M35.4482 9.33333V32.6667L42.7189 30.3333V7L35.4482 9.33333Z" fill="#8FBFFA"/>
</svg>
