<svg width="156" height="61" viewBox="0 0 156 61" fill="none" xmlns="http://www.w3.org/2000/svg">
<path d="M5.74052 5.01628V37.3216C5.74052 39.3159 6.13677 40.1706 7.05119 40.6793V41.0761H0V40.6793C0.853458 40.1706 1.2497 39.3159 1.2497 37.3216V5.01628C1.2497 3.02199 0.853458 2.1673 0 1.65855V1.20068H7.05119V1.65855C6.13677 2.1673 5.74052 3.02199 5.74052 5.01628Z" fill="url(#paint0_linear_1_7104)"/>
<path d="M39.7062 40.6895V41.0863H32.655V40.6895C33.5694 40.1808 33.7929 39.204 33.6202 37.3318C33.4475 35.4494 32.594 25.824 32.3096 22.8631C31.9133 18.5896 29.8101 13.7463 24.9129 14.7129C18.5425 15.9645 17.3435 27.8793 17.3435 32.6615V37.3318C17.3435 39.3261 17.7398 40.1808 18.6542 40.6895V41.0863H11.603V40.6895C12.4565 40.1808 12.8527 39.3261 12.8527 37.3318V18.0707C12.8527 16.0764 12.68 15.5066 11.603 15.3336V14.9368L16.9473 13.6853H17.3435V27.8182C18.0852 21.4386 20.0157 13.6853 27.4123 13.6853C32.0759 13.6853 36.0587 16.8802 36.7394 23.7178C37.3084 29.2427 37.8774 35.2256 38.1009 37.3318C38.3244 39.3871 38.8426 40.1808 39.696 40.6895H39.7062Z" fill="url(#paint1_linear_1_7104)"/>
<path d="M62.4041 31.115C61.3271 36.467 58.9293 41.4324 52.9551 41.4324C47.8953 41.4324 44.766 38.1256 44.766 31.4V14.1331H41.4131V13.6752C46.2494 13.6752 46.6456 8.60815 46.6456 5.87109H51.1364C51.1364 10.2565 46.8082 13.5023 43.3943 13.6752H55.9727V14.1331H49.2568V32.2547C49.2568 37.2098 50.6183 41.0254 55.4545 40.4047C59.2138 39.896 61.0833 35.3885 62.1095 31.0031L62.3939 31.115H62.4041Z" fill="url(#paint2_linear_1_7104)"/>
<path d="M89.5421 32.0206C89.1967 36.0702 85.6203 41.4222 77.5328 41.4222C69.4452 41.4222 62.1096 37.5455 61.886 28.1439C61.6015 18.2844 70.5324 14.011 76.7911 13.6752C81.6273 13.4513 88.2823 15.7814 89.0849 22.68H83.7915C87.0326 23.5347 89.9892 26.8415 89.5421 32.0206ZM81.4648 22.68H66.7324C65.9907 25.7019 66.1635 29.0597 67.1287 31.7967C69.2319 37.7796 73.4992 40.4047 79.3006 40.1707C84.1979 39.9468 88.4652 36.5789 89.0341 32.1325C89.7149 26.2107 85.793 22.6698 81.4648 22.6698V22.68ZM66.8442 22.2221H84.9904C84.2487 17.2669 79.8086 13.2784 74.2408 14.3569C70.3698 15.0997 67.8704 18.3455 66.8442 22.2221Z" fill="url(#paint3_linear_1_7104)"/>
<path d="M100.586 40.6895V41.0863H93.5859V40.6895C94.4394 40.1807 94.8356 39.326 94.8356 37.3318V4.39557C94.8356 2.40129 94.6629 1.83149 93.5859 1.65852V1.20065L98.9302 0H99.3265V37.3216C99.3265 39.3159 99.7227 40.1706 100.576 40.6793L100.586 40.6895Z" fill="url(#paint4_linear_1_7104)"/>
<path d="M111.569 40.6895V41.0863H104.569V40.6895C105.422 40.1807 105.819 39.326 105.819 37.3318V4.39557C105.819 2.40129 105.646 1.83149 104.569 1.65852V1.20065L109.913 0H110.309V37.3216C110.309 39.3159 110.706 40.1706 111.559 40.6793L111.569 40.6895Z" fill="url(#paint5_linear_1_7104)"/>
<path d="M145.19 26.3225C145.19 35.4392 137.397 41.422 129.766 41.422C122.136 41.422 115.542 36.7517 115.542 28.7746C115.542 19.373 123.335 13.675 130.965 13.675C138.596 13.675 145.19 18.4573 145.19 26.3225ZM140.414 24.5011C138.423 17.6636 133.079 12.8204 126.586 14.7027C120.104 16.5851 118.336 23.7075 120.327 30.5959C122.319 37.4335 127.663 42.3378 134.156 40.3944C140.638 38.512 142.406 31.3896 140.414 24.5011Z" fill="url(#paint6_linear_1_7104)"/>
<path d="M152.413 30.657L149.172 1.20068H156L152.81 30.657H152.413ZM155.716 38.2882C155.716 39.9976 154.293 41.4221 152.586 41.4221C150.879 41.4221 149.518 39.9976 149.518 38.2882C149.518 36.5788 150.879 35.2154 152.586 35.2154C154.293 35.2154 155.716 36.5788 155.716 38.2882Z" fill="url(#paint7_linear_1_7104)"/>
<path d="M46.864 55.2904L47.0977 55.3413L46.295 57.9054H39V57.651H39.3556C39.7519 57.651 40.0363 57.5187 40.2091 57.2644C40.3107 57.1219 40.3513 56.7759 40.3513 56.2367V50.1521C40.3513 49.562 40.2903 49.1855 40.1583 49.043C39.9754 48.8395 39.7112 48.7378 39.3556 48.7378H39V48.4834H43.2673V48.7378C43.0133 48.7378 42.7999 48.7479 42.6272 48.7683C42.4545 48.7886 42.3224 48.8294 42.2106 48.8701C42.0989 48.9107 42.0176 48.9718 41.9566 49.0329C41.8957 49.0939 41.8449 49.1651 41.8042 49.2364C41.7331 49.3788 41.6925 49.7349 41.6925 50.3047V56.2265C41.6925 56.3893 41.6925 56.5318 41.7128 56.6437C41.7331 56.7556 41.7433 56.8574 41.7737 56.9286C41.8042 56.9998 41.8347 57.071 41.8855 57.1117C41.9363 57.1626 41.9871 57.2033 42.0684 57.2236C42.1801 57.2745 42.5358 57.2949 43.1555 57.2949H43.8464C44.5678 57.2949 45.0758 57.244 45.3704 57.1321C45.5228 57.0812 45.6549 57.01 45.787 56.9184C45.9191 56.8268 46.041 56.7149 46.163 56.5725C46.2849 56.43 46.4068 56.2468 46.5287 56.0433C46.6506 55.8399 46.7726 55.5855 46.8945 55.2802L46.864 55.2904Z" fill="#333333"/>
<path d="M48.9166 53.927C48.9166 54.395 48.9776 54.8224 49.0995 55.1988C49.2214 55.5753 49.3941 55.8907 49.6075 56.1553C49.8209 56.4198 50.0647 56.6131 50.3492 56.7556C50.6337 56.8879 50.9283 56.9591 51.2331 56.9591C51.6497 56.9591 52.0155 56.8472 52.3203 56.6132C52.6251 56.3893 52.8892 55.9925 53.0924 55.4329L53.3058 55.5753C53.255 55.8907 53.1534 56.196 53.0112 56.491C52.8689 56.7861 52.686 57.0608 52.4625 57.2949C52.239 57.5289 51.9748 57.7222 51.6802 57.8647C51.3855 58.0071 51.0604 58.0783 50.7048 58.0783C50.3289 58.0783 49.9631 57.9969 49.6278 57.8443C49.2925 57.6917 48.9979 57.4679 48.7439 57.183C48.4899 56.8981 48.2867 56.5521 48.1444 56.1451C47.992 55.7381 47.9209 55.2802 47.9209 54.7817C47.9209 54.2322 47.992 53.7438 48.1444 53.3063C48.2968 52.879 48.5 52.5127 48.7642 52.2176C49.0284 51.9225 49.3433 51.6987 49.6989 51.546C50.0545 51.3934 50.4406 51.312 50.8572 51.312C51.2128 51.312 51.5379 51.3731 51.8326 51.4952C52.1272 51.6173 52.3914 51.7902 52.6048 52.0243C52.8181 52.2583 52.9908 52.5228 53.1128 52.8382C53.2347 53.1537 53.2956 53.5098 53.2956 53.9066H48.8963L48.9166 53.927ZM48.9166 53.5302H51.8631C51.8427 53.1232 51.7919 52.8383 51.7208 52.6653C51.609 52.4109 51.4363 52.1972 51.2026 52.0548C50.969 51.9123 50.7353 51.8309 50.4813 51.8309C50.2882 51.8309 50.1053 51.8716 49.9326 51.9429C49.7599 52.0243 49.5973 52.1362 49.4551 52.2786C49.3128 52.4211 49.1909 52.6042 49.0995 52.8077C49.008 53.0112 48.9471 53.2554 48.9268 53.52L48.9166 53.5302Z" fill="#333333"/>
<path d="M57.7657 56.9793C57.1155 57.4881 56.6989 57.7832 56.5364 57.8544C56.2925 57.9663 56.0284 58.0274 55.7337 58.0274C55.5203 58.0274 55.3171 57.9867 55.1342 57.9053C54.9514 57.8239 54.7888 57.7119 54.6567 57.5695C54.5246 57.427 54.4129 57.2541 54.3417 57.0506C54.2605 56.8471 54.23 56.6232 54.23 56.379C54.23 56.1959 54.2503 56.0331 54.3011 55.8805C54.3519 55.7278 54.423 55.5854 54.5246 55.4429C54.6262 55.3106 54.7482 55.1784 54.9006 55.0461C55.053 54.9138 55.2257 54.8019 55.4289 54.6798C55.9064 54.3949 56.6888 54.0591 57.7759 53.6623V53.4079C57.7759 53.0925 57.7454 52.8178 57.6946 52.6041C57.6438 52.3905 57.5625 52.2175 57.4609 52.0954C57.3593 51.9631 57.2374 51.8817 57.085 51.8207C56.9326 51.7698 56.77 51.7393 56.5872 51.7393C56.4348 51.7393 56.3027 51.7596 56.1909 51.8003C56.069 51.841 55.9674 51.9021 55.8861 51.9733C55.8048 52.0445 55.7439 52.1259 55.6931 52.2276C55.6524 52.3192 55.6321 52.421 55.6321 52.5126V52.9196C55.6423 53.1332 55.5915 53.296 55.4797 53.4181C55.3679 53.5402 55.2257 53.5911 55.053 53.5911C54.8802 53.5911 54.738 53.53 54.6364 53.4079C54.5348 53.2858 54.4738 53.1231 54.4738 52.9094C54.4738 52.7161 54.5246 52.5227 54.6262 52.3294C54.7278 52.1361 54.8802 51.9631 55.0733 51.8105C55.2663 51.6579 55.5102 51.5358 55.8048 51.4442C56.0995 51.3526 56.4246 51.3018 56.7904 51.3018C57.2781 51.3018 57.6946 51.373 58.0401 51.5154C58.3855 51.6579 58.6294 51.9021 58.7818 52.2582C58.8631 52.4617 58.9037 52.8687 58.9037 53.4792V55.6464C58.9037 55.9517 58.9037 56.1959 58.9138 56.379C58.924 56.5622 58.924 56.6945 58.9342 56.7657C58.9545 56.898 58.9951 56.9895 59.0459 57.0404C59.0967 57.0913 59.1577 57.1116 59.2288 57.1116C59.2796 57.1116 59.3203 57.1116 59.3609 57.0913C59.4015 57.0709 59.4523 57.0506 59.5031 57.0099C59.5539 56.9692 59.6251 56.9081 59.6962 56.8369C59.7673 56.7657 59.8689 56.6741 59.9807 56.552V56.9386C59.4523 57.6305 58.9647 57.9867 58.4973 57.9867C58.2738 57.9867 58.0909 57.9053 57.9588 57.7526C57.8267 57.6 57.7454 57.3253 57.7454 56.9488L57.7657 56.9793ZM57.7657 56.5316V54.0999C57.4101 54.2423 57.1256 54.3542 56.9021 54.456C56.6786 54.5577 56.516 54.6289 56.4144 54.69C56.0487 54.9037 55.7845 55.1173 55.6321 55.331C55.4797 55.5549 55.3984 55.7991 55.3984 56.0534C55.3984 56.2162 55.4289 56.379 55.4797 56.5215C55.5305 56.6639 55.6016 56.786 55.6931 56.8878C55.7845 56.9895 55.8861 57.0709 56.008 57.132C56.1299 57.193 56.2519 57.2134 56.384 57.2134C56.7396 57.2134 57.1968 56.9793 57.7759 56.5215L57.7657 56.5316Z" fill="#333333"/>
<path d="M62.3381 51.3427V52.7773C62.8766 51.8209 63.4252 51.3427 63.9739 51.3427C64.0958 51.3427 64.2177 51.363 64.3193 51.4037C64.4209 51.4444 64.5225 51.5055 64.6038 51.5767C64.6851 51.6479 64.746 51.7293 64.7867 51.8209C64.8273 51.9125 64.8477 52.0142 64.8477 52.116C64.8477 52.2991 64.7867 52.4518 64.6648 52.5739C64.5429 52.696 64.4006 52.757 64.238 52.757C64.1568 52.757 64.0755 52.7265 63.9739 52.6756C63.8723 52.6247 63.7808 52.5739 63.6894 52.5128C63.598 52.4518 63.5065 52.4009 63.4252 52.35C63.3439 52.2991 63.283 52.2686 63.2423 52.2686C63.1814 52.2686 63.1103 52.2991 63.0391 52.35C62.968 52.4009 62.8867 52.4823 62.8055 52.5739C62.7242 52.6654 62.6429 52.7875 62.5616 52.9198C62.4803 53.0521 62.399 53.1945 62.3178 53.3573V56.4098C62.3178 56.6031 62.3279 56.7761 62.3482 56.9287C62.3686 57.0813 62.4194 57.2136 62.5006 57.3153C62.5819 57.4171 62.6937 57.5087 62.8359 57.5596C62.9883 57.6206 63.1814 57.6511 63.4252 57.6511V57.9055H60.1638V57.6511C60.367 57.6511 60.5296 57.6409 60.6616 57.6104C60.7937 57.5799 60.8953 57.529 60.9665 57.4476C61.0376 57.3662 61.0884 57.2441 61.1189 57.0915C61.1493 56.9389 61.1595 56.7354 61.1595 56.4708V53.9983C61.1595 53.2454 61.1392 52.8079 61.1087 52.6756C61.0477 52.4009 60.8953 52.2686 60.6413 52.2686C60.4991 52.2686 60.3365 52.2991 60.1536 52.3703L60.0825 52.116L62.0028 51.3325H62.2974L62.3381 51.3427Z" fill="#333333"/>
<path d="M67.0624 52.6958C67.8041 51.8004 68.5153 51.3425 69.196 51.3425C69.4297 51.3425 69.6533 51.3832 69.8463 51.4646C70.0393 51.546 70.2222 51.6783 70.3645 51.8615C70.5067 52.0446 70.6286 52.2888 70.7099 52.5941C70.7912 52.8993 70.8318 53.286 70.8318 53.7438V56.4605C70.8318 56.7352 70.842 56.9489 70.8725 57.1117C70.903 57.2745 70.9538 57.3864 71.0249 57.4678C71.096 57.5492 71.1976 57.6001 71.3195 57.6205C71.4415 57.6408 71.604 57.651 71.7869 57.651V57.9054H68.6372V57.651H68.7693C68.9827 57.651 69.1452 57.6306 69.257 57.6001C69.3688 57.5696 69.4602 57.4984 69.5212 57.4068C69.5821 57.3152 69.6228 57.1931 69.6329 57.0405C69.6431 56.8879 69.6533 56.6945 69.6533 56.4605V53.8557C69.6533 53.2758 69.5821 52.8586 69.4297 52.5941C69.2773 52.3295 69.0233 52.1972 68.6677 52.1972C68.1191 52.1972 67.5704 52.5025 67.0218 53.1028V56.4605C67.0218 56.8879 67.0421 57.1524 67.103 57.2643C67.1335 57.3356 67.1741 57.3966 67.2148 57.4475C67.2554 57.4984 67.3062 57.539 67.3774 57.5696C67.4485 57.6001 67.5298 57.6205 67.6415 57.6408C67.7533 57.6612 67.8955 57.6612 68.0683 57.6612V57.9155H64.9186V57.6612H65.0608C65.2234 57.6612 65.3656 57.6408 65.4672 57.6103C65.5688 57.5798 65.6603 57.5085 65.7213 57.417C65.7822 57.3254 65.8228 57.2033 65.8533 57.0507C65.8736 56.898 65.8838 56.7047 65.8838 56.4809V54.1203C65.8838 53.3673 65.8635 52.8993 65.833 52.7263C65.8025 52.5635 65.7517 52.4414 65.6806 52.3905C65.6095 52.3397 65.5079 52.299 65.3961 52.299C65.264 52.299 65.1116 52.3295 64.9287 52.4007L64.8271 52.1464L66.7474 51.3629H67.0421V52.7161L67.0624 52.6958Z" fill="#333333"/>
<path d="M74.5202 51.3426V56.4605C74.5202 56.664 74.5202 56.8269 74.5405 56.9591C74.5507 57.0812 74.571 57.1931 74.6015 57.2644C74.632 57.3356 74.6624 57.4068 74.7132 57.4374C74.7539 57.4781 74.8047 57.5086 74.8657 57.5493C74.9876 57.6103 75.1908 57.651 75.4956 57.651V57.9054H72.4069V57.651C72.5593 57.651 72.6914 57.651 72.793 57.6307C72.8946 57.6103 72.9759 57.59 73.0368 57.5595C73.0978 57.5289 73.1486 57.4882 73.1791 57.4374C73.2095 57.3865 73.2502 57.3254 73.2806 57.2644C73.3416 57.1219 73.3823 56.8574 73.3823 56.4605V54.0084C73.3823 53.6014 73.3823 53.286 73.3619 53.052C73.3416 52.818 73.3213 52.645 73.2908 52.533C73.2603 52.4211 73.2095 52.3397 73.1384 52.3194C73.0673 52.2889 72.986 52.2787 72.8844 52.2787C72.7523 52.2787 72.5999 52.3092 72.417 52.3804L72.3154 52.1261L74.2357 51.3426H74.5405H74.5202ZM73.9411 48.0154C74.0427 48.0154 74.1341 48.0357 74.2154 48.0662C74.2967 48.0968 74.378 48.1578 74.4389 48.2189C74.4999 48.2799 74.5507 48.3512 74.5913 48.4427C74.632 48.5241 74.6421 48.6157 74.6421 48.7175C74.6421 48.8192 74.6218 48.9108 74.5913 48.9922C74.5507 49.0736 74.4999 49.155 74.4389 49.216C74.378 49.2771 74.3068 49.3279 74.2154 49.3686C74.124 49.4093 74.0427 49.4195 73.9411 49.4195C73.8395 49.4195 73.748 49.3992 73.6667 49.3686C73.5855 49.3381 73.5042 49.2771 73.4432 49.216C73.3823 49.155 73.3315 49.0736 73.2908 48.9922C73.2502 48.9108 73.24 48.8192 73.24 48.7175C73.24 48.6157 73.2603 48.5241 73.2908 48.4427C73.3315 48.3613 73.3823 48.2799 73.4432 48.2189C73.5042 48.1578 73.5855 48.1069 73.6667 48.0662C73.748 48.0255 73.8496 48.0154 73.9411 48.0154Z" fill="#333333"/>
<path d="M78.1268 52.6958C78.8685 51.8004 79.5798 51.3425 80.2605 51.3425C80.4942 51.3425 80.7177 51.3832 80.9108 51.4646C81.1038 51.546 81.2867 51.6783 81.4289 51.8615C81.5712 52.0446 81.6931 52.2888 81.7744 52.5941C81.8556 52.8993 81.8963 53.286 81.8963 53.7438V56.4605C81.8963 56.7352 81.9064 56.9489 81.9369 57.1117C81.9674 57.2745 82.0182 57.3864 82.0893 57.4678C82.1605 57.5492 82.2621 57.6001 82.384 57.6205C82.5059 57.6408 82.6685 57.651 82.8514 57.651V57.9054H79.7017V57.651H79.8338C80.0471 57.651 80.2097 57.6306 80.3215 57.6001C80.4332 57.5696 80.5247 57.4984 80.5856 57.4068C80.6466 57.3152 80.6872 57.1931 80.6974 57.0405C80.7075 56.8879 80.7177 56.6945 80.7177 56.4605V53.8557C80.7177 53.2758 80.6466 52.8586 80.4942 52.5941C80.3418 52.3295 80.0878 52.1972 79.7322 52.1972C79.1835 52.1972 78.6349 52.5025 78.0862 53.1028V56.4605C78.0862 56.8879 78.1065 57.1524 78.1675 57.2643C78.198 57.3356 78.2386 57.3966 78.2793 57.4475C78.3199 57.4984 78.3707 57.539 78.4418 57.5696C78.5129 57.6001 78.5942 57.6205 78.706 57.6408C78.8177 57.6612 78.96 57.6612 79.1327 57.6612V57.9155H75.983V57.6612H76.1253C76.2878 57.6612 76.4301 57.6408 76.5317 57.6103C76.6333 57.5798 76.7247 57.5085 76.7857 57.417C76.8467 57.3254 76.8873 57.2033 76.9178 57.0507C76.9381 56.898 76.9483 56.7047 76.9483 56.4809V54.1203C76.9483 53.3673 76.9279 52.8993 76.8975 52.7263C76.867 52.5635 76.8162 52.4414 76.7451 52.3905C76.6739 52.3397 76.5723 52.299 76.4606 52.299C76.3285 52.299 76.1761 52.3295 75.9932 52.4007L75.8916 52.1464L77.8119 51.3629H78.1065V52.7161L78.1268 52.6958Z" fill="#333333"/>
<path d="M85.0866 55.5753C84.6904 55.382 84.3957 55.1174 84.1824 54.7817C83.9791 54.4459 83.8775 54.0694 83.8775 53.6523C83.8775 53.3368 83.9385 53.0418 84.0604 52.7569C84.1823 52.472 84.3652 52.2278 84.5888 52.0243C84.8123 51.8208 85.0866 51.6478 85.3914 51.5257C85.6962 51.4036 86.0417 51.3425 86.4074 51.3425C87.0171 51.3425 87.5454 51.4952 87.9823 51.7902H89.3336C89.4352 51.7902 89.5165 51.7902 89.5673 51.7902C89.6181 51.7902 89.6587 51.7902 89.6892 51.8004C89.7095 51.8004 89.7298 51.8208 89.7298 51.8208C89.7298 51.8208 89.74 51.8411 89.7501 51.8513C89.7806 51.892 89.7908 51.9632 89.7908 52.0751C89.7908 52.1463 89.7908 52.1972 89.7908 52.2481C89.7908 52.2888 89.7705 52.3295 89.7501 52.3499C89.7298 52.3702 89.679 52.3905 89.6181 52.3905C89.5571 52.3905 89.4657 52.4007 89.3336 52.4007H88.5106C88.7748 52.7365 88.8967 53.1639 88.8967 53.6828C88.8967 53.9778 88.8357 54.2525 88.724 54.5171C88.602 54.7816 88.4395 55.0055 88.216 55.1988C87.9924 55.3922 87.7384 55.5448 87.4235 55.6669C87.1085 55.789 86.763 55.8399 86.3871 55.8399C86.0721 55.8399 85.7572 55.789 85.4219 55.6974C85.2085 55.8704 85.0764 56.0332 85.0053 56.1553C84.9342 56.2875 84.9037 56.3995 84.9037 56.491C84.9037 56.5623 84.9139 56.6233 84.9444 56.6742C84.9748 56.7251 85.0358 56.7658 85.1374 56.8065C85.239 56.837 85.3914 56.8675 85.5946 56.8879C85.7978 56.9082 86.0721 56.9286 86.4277 56.9286C86.9053 56.9388 87.3015 56.9591 87.6063 56.9693C87.9111 56.9794 88.1448 56.9998 88.2871 57.0201C88.5004 57.0507 88.6935 57.1016 88.8662 57.1829C89.0389 57.2643 89.1913 57.3661 89.3132 57.4984C89.4352 57.6306 89.5266 57.7629 89.5977 57.9257C89.6689 58.0885 89.6993 58.2615 89.6993 58.4548C89.6993 58.9737 89.4555 59.4723 88.9678 59.9302C88.2363 60.6119 87.3015 60.9476 86.1433 60.9476C85.8283 60.9476 85.5032 60.9171 85.1679 60.8459C84.8326 60.7747 84.538 60.6831 84.2738 60.561C84.0096 60.4389 83.7861 60.3067 83.6134 60.1439C83.4407 59.9811 83.3594 59.8081 83.3594 59.6249C83.3594 59.5537 83.3695 59.4825 83.3899 59.4113C83.4102 59.34 83.4406 59.2586 83.4914 59.1772C83.5321 59.0958 83.593 59.0042 83.6642 58.9127C83.7353 58.8211 83.8267 58.699 83.9283 58.5769C83.9588 58.5362 84.1925 58.2818 84.6396 57.8239C84.3957 57.6815 84.2331 57.5492 84.1315 57.4373C84.0299 57.3254 83.9791 57.1931 83.9791 57.0507C83.9791 56.9693 83.9893 56.8777 84.0096 56.7861C84.0299 56.6945 84.0807 56.5928 84.162 56.4809C84.2433 56.369 84.3551 56.2367 84.4973 56.084C84.6396 55.9314 84.8428 55.7585 85.0866 55.555V55.5753ZM85.0155 57.9054C84.5786 58.3836 84.3551 58.7906 84.3551 59.1264C84.3551 59.279 84.416 59.4214 84.5481 59.5435C84.6802 59.6656 84.8428 59.7775 85.0663 59.8589C85.2898 59.9403 85.5438 60.0116 85.8385 60.0624C86.1331 60.1133 86.4481 60.1337 86.7732 60.1337C87.1898 60.1337 87.5555 60.093 87.8603 60.0116C88.1652 59.9302 88.4192 59.8182 88.6224 59.686C88.8256 59.5537 88.9678 59.4011 89.0694 59.2383C89.171 59.0755 89.2117 58.9127 89.2117 58.7499C89.2117 58.6278 89.1913 58.526 89.1304 58.4446C89.0694 58.3632 88.9881 58.292 88.856 58.2411C88.724 58.1902 88.5411 58.1495 88.3074 58.119C88.0737 58.0885 87.7791 58.0682 87.4133 58.058C86.885 58.0478 86.4278 58.0275 86.0315 57.9969C85.6353 57.9664 85.2898 57.9359 85.0155 57.8952V57.9054ZM86.2957 51.6783C86.1331 51.6783 85.9705 51.7088 85.8283 51.7801C85.6759 51.8513 85.554 51.953 85.4422 52.0853C85.3304 52.2176 85.2492 52.4007 85.1882 52.6042C85.1272 52.8179 85.0968 53.0621 85.0968 53.347C85.0968 53.6624 85.1272 53.9473 85.1882 54.2119C85.2492 54.4764 85.3406 54.7003 85.4625 54.8936C85.5845 55.0869 85.7267 55.2395 85.8994 55.3413C86.0722 55.443 86.2652 55.5041 86.4786 55.5041C86.6513 55.5041 86.8138 55.4736 86.9662 55.4023C87.1186 55.3311 87.2406 55.2395 87.3523 55.1073C87.4641 54.975 87.5454 54.802 87.6063 54.5985C87.6673 54.395 87.6978 54.1508 87.6978 53.8659C87.6978 53.5505 87.6673 53.2656 87.6063 53.001C87.5454 52.7365 87.4539 52.5025 87.332 52.3092C87.2101 52.1158 87.0679 51.9632 86.8951 51.8513C86.7224 51.7394 86.5294 51.6885 86.3058 51.6885L86.2957 51.6783Z" fill="#333333"/>
<path d="M99.3316 54.741H95.6841L95.044 56.2266C94.8916 56.5929 94.8103 56.8574 94.8103 57.0507C94.8103 57.122 94.8205 57.1932 94.8509 57.2542C94.8713 57.3153 94.9322 57.3763 95.0033 57.4272C95.0846 57.4781 95.1964 57.529 95.3386 57.5595C95.4809 57.6002 95.6739 57.6205 95.8974 57.6409V57.8952H92.9307V57.6409C93.3168 57.5696 93.5708 57.4781 93.6927 57.3662C93.8146 57.2542 93.9365 57.0914 94.0686 56.8574C94.2007 56.6336 94.3328 56.3487 94.4852 56.0027L97.7974 48.2393H98.0413L101.323 56.0841C101.455 56.4097 101.577 56.6743 101.699 56.8676C101.811 57.0609 101.933 57.2135 102.055 57.3254C102.176 57.4374 102.309 57.5086 102.451 57.5493C102.593 57.59 102.756 57.6205 102.959 57.6307V57.8851H99.2402V57.6307C99.423 57.6307 99.5754 57.6002 99.7075 57.5696C99.8396 57.5391 99.931 57.4984 100.002 57.4475C100.073 57.3967 100.124 57.3356 100.155 57.2746C100.185 57.2135 100.195 57.1423 100.195 57.0609C100.195 56.9591 100.175 56.8269 100.134 56.6641C100.083 56.5013 100.012 56.3181 99.9209 56.0943L99.3519 54.741H99.3316ZM99.1386 54.2323L97.5434 50.4167L95.9076 54.2323H99.1487H99.1386Z" fill="#333333"/>
<path d="M103.08 52.1667L105.041 51.3731H105.305V52.8586C105.468 52.5839 105.641 52.3397 105.803 52.1464C105.966 51.953 106.128 51.8004 106.301 51.6783C106.464 51.5562 106.636 51.4748 106.809 51.4239C106.982 51.3731 107.165 51.3425 107.337 51.3425C107.703 51.3425 108.028 51.4239 108.323 51.5969C108.618 51.7699 108.872 51.9937 109.075 52.2786C109.278 52.5635 109.441 52.8993 109.552 53.2758C109.664 53.6523 109.725 54.0592 109.725 54.4968C109.725 54.975 109.654 55.443 109.522 55.8806C109.39 56.3181 109.187 56.7047 108.943 57.0303C108.699 57.3559 108.384 57.6205 108.028 57.8138C107.673 58.0071 107.266 58.1089 106.829 58.1089C106.677 58.1089 106.535 58.1089 106.403 58.0885C106.271 58.0682 106.149 58.0478 106.027 58.0071C105.905 57.9664 105.793 57.9054 105.671 57.8341C105.559 57.7629 105.437 57.6612 105.305 57.5492V59.4926C105.305 59.7165 105.305 59.8996 105.326 60.0319C105.336 60.1642 105.356 60.2659 105.387 60.3371C105.417 60.4084 105.448 60.4593 105.498 60.5C105.549 60.5407 105.6 60.5712 105.661 60.6017C105.793 60.6729 106.027 60.7035 106.382 60.7035V60.9578H103.05V60.7035H103.223C103.405 60.7035 103.578 60.6729 103.741 60.622C103.903 60.5712 104.015 60.4592 104.076 60.3066C104.127 60.1947 104.157 59.8997 104.157 59.4418V53.4182C104.157 53.174 104.157 52.9807 104.137 52.8281C104.117 52.6856 104.096 52.5737 104.046 52.4923C103.995 52.4109 103.944 52.36 103.873 52.3397C103.802 52.3092 103.71 52.299 103.598 52.299C103.497 52.299 103.355 52.3295 103.172 52.4007L103.09 52.1769L103.08 52.1667ZM105.305 53.2656V55.6465C105.305 56.1654 105.326 56.5012 105.366 56.664C105.397 56.7963 105.458 56.9286 105.539 57.0507C105.62 57.1728 105.722 57.2847 105.844 57.3763C105.966 57.4679 106.108 57.5391 106.271 57.6001C106.433 57.6612 106.606 57.6815 106.799 57.6815C107.063 57.6815 107.307 57.6205 107.52 57.4882C107.734 57.3559 107.906 57.1829 108.049 56.9591C108.191 56.7353 108.303 56.4707 108.374 56.1553C108.445 55.8399 108.486 55.5041 108.486 55.1378C108.486 54.741 108.445 54.3747 108.364 54.0287C108.282 53.6929 108.171 53.3979 108.018 53.1435C107.866 52.8993 107.693 52.6958 107.48 52.5635C107.266 52.4211 107.043 52.3499 106.789 52.3499C106.677 52.3499 106.565 52.3702 106.453 52.4007C106.342 52.4313 106.24 52.4923 106.118 52.5737C106.006 52.6449 105.874 52.7467 105.742 52.8586C105.61 52.9705 105.458 53.113 105.295 53.2656H105.305Z" fill="#333333"/>
<path d="M110.193 52.1667L112.154 51.3731H112.418V52.8586C112.58 52.5839 112.753 52.3397 112.916 52.1464C113.078 51.953 113.241 51.8004 113.413 51.6783C113.576 51.5562 113.749 51.4748 113.921 51.4239C114.094 51.3731 114.277 51.3425 114.45 51.3425C114.805 51.3425 115.141 51.4239 115.435 51.5969C115.73 51.7597 115.984 51.9937 116.187 52.2786C116.39 52.5635 116.553 52.8993 116.665 53.2758C116.776 53.6523 116.837 54.0592 116.837 54.4968C116.837 54.975 116.766 55.443 116.634 55.8806C116.502 56.3181 116.299 56.7047 116.055 57.0303C115.801 57.3559 115.496 57.6205 115.141 57.8138C114.785 58.0071 114.389 58.1089 113.942 58.1089C113.789 58.1089 113.647 58.1089 113.515 58.0885C113.383 58.0682 113.261 58.0478 113.139 58.0071C113.017 57.9664 112.905 57.9054 112.783 57.8341C112.672 57.7629 112.55 57.6612 112.418 57.5492V59.4926C112.418 59.7165 112.418 59.8996 112.438 60.0319C112.448 60.1642 112.468 60.2659 112.499 60.3371C112.529 60.4084 112.56 60.4593 112.611 60.5C112.662 60.5407 112.712 60.5712 112.773 60.6017C112.905 60.6729 113.139 60.7035 113.495 60.7035V60.9578H110.162V60.7035H110.335C110.518 60.7035 110.69 60.6729 110.853 60.622C111.016 60.5712 111.127 60.4592 111.188 60.3066C111.239 60.1947 111.27 59.8997 111.27 59.4418V53.4182C111.27 53.174 111.27 52.9807 111.249 52.8281C111.229 52.6856 111.209 52.5737 111.158 52.4923C111.107 52.4109 111.056 52.36 110.985 52.3397C110.914 52.3092 110.823 52.299 110.711 52.299C110.609 52.299 110.467 52.3295 110.284 52.4007L110.203 52.1769L110.193 52.1667ZM112.418 53.2656V55.6465C112.418 56.1654 112.438 56.5012 112.479 56.664C112.509 56.7963 112.57 56.9286 112.651 57.0507C112.733 57.1728 112.834 57.2847 112.956 57.3763C113.078 57.4679 113.22 57.5391 113.383 57.6001C113.545 57.6612 113.718 57.6815 113.911 57.6815C114.175 57.6815 114.419 57.6205 114.633 57.4882C114.846 57.3559 115.019 57.1829 115.161 56.9591C115.303 56.7353 115.415 56.4707 115.486 56.1553C115.557 55.8399 115.598 55.5041 115.598 55.1378C115.598 54.741 115.557 54.3747 115.476 54.0287C115.395 53.6929 115.283 53.3979 115.13 53.1435C114.978 52.8993 114.805 52.6958 114.592 52.5635C114.389 52.4211 114.155 52.3499 113.901 52.3499C113.789 52.3499 113.678 52.3702 113.566 52.4007C113.454 52.4313 113.352 52.4923 113.23 52.5737C113.119 52.6449 112.987 52.7467 112.855 52.8586C112.722 52.9705 112.57 53.113 112.408 53.2656H112.418Z" fill="#333333"/>
<defs>
<linearGradient id="paint0_linear_1_7104" x1="5.8046" y1="4.2135" x2="-9.18864" y2="9.4661" gradientUnits="userSpaceOnUse">
<stop stop-color="#FFD727"/>
<stop offset="1" stop-color="#FF5A1C"/>
</linearGradient>
<linearGradient id="paint1_linear_1_7104" x1="34.7378" y1="15.7556" x2="21.6565" y2="42.336" gradientUnits="userSpaceOnUse">
<stop stop-color="#FFD727"/>
<stop offset="1" stop-color="#FF5A1C"/>
</linearGradient>
<linearGradient id="paint2_linear_1_7104" x1="58.6931" y1="8.55795" x2="37.5272" y2="33.3102" gradientUnits="userSpaceOnUse">
<stop stop-color="#FFD727"/>
<stop offset="1" stop-color="#FF5A1C"/>
</linearGradient>
<linearGradient id="paint3_linear_1_7104" x1="84.6886" y1="15.7582" x2="71.2163" y2="42.3974" gradientUnits="userSpaceOnUse">
<stop stop-color="#FFD727"/>
<stop offset="1" stop-color="#FF5A1C"/>
</linearGradient>
<linearGradient id="paint4_linear_1_7104" x1="99.3487" y1="3.1043" x2="84.3461" y2="8.16855" gradientUnits="userSpaceOnUse">
<stop stop-color="#FFD727"/>
<stop offset="1" stop-color="#FF5A1C"/>
</linearGradient>
<linearGradient id="paint5_linear_1_7104" x1="110.332" y1="3.1043" x2="95.329" y2="8.16855" gradientUnits="userSpaceOnUse">
<stop stop-color="#FFD727"/>
<stop offset="1" stop-color="#FF5A1C"/>
</linearGradient>
<linearGradient id="paint6_linear_1_7104" x1="139.948" y1="15.7715" x2="127.035" y2="43.1065" gradientUnits="userSpaceOnUse">
<stop stop-color="#FFD727"/>
<stop offset="1" stop-color="#FF5A1C"/>
</linearGradient>
<linearGradient id="paint7_linear_1_7104" x1="154.793" y1="4.23963" x2="140.149" y2="9.16438" gradientUnits="userSpaceOnUse">
<stop stop-color="#FFD727"/>
<stop offset="1" stop-color="#FF5A1C"/>
</linearGradient>
</defs>
</svg>
