<svg width="156" height="210" viewBox="0 0 156 210" fill="none" xmlns="http://www.w3.org/2000/svg">
<path d="M103.451 29.0188V25.4983C103.451 11.4162 92.0516 0 77.9898 0C63.9281 0 52.5283 11.4162 52.5283 25.4983V94.1281C88.2008 77.8686 103.441 29.0188 103.441 29.0188H103.451Z" fill="url(#paint0_linear_1_7077)"/>
<path d="M52.5386 111.578H62.1603C65.3201 104.853 71.2334 100.325 78.0001 100.325C84.7668 100.325 90.68 104.853 93.8399 111.578H103.462V76.1694C89.0443 92.7444 66.8442 97.262 52.5487 98.3507V111.588L52.5386 111.578Z" fill="url(#paint1_linear_1_7077)"/>
<path d="M78 141.136C86.2206 141.136 92.8847 132.936 92.8847 122.821C92.8847 112.706 86.2206 104.507 78 104.507C69.7794 104.507 63.1152 112.706 63.1152 122.821C63.1152 132.936 69.7794 141.136 78 141.136Z" fill="url(#paint2_linear_1_7077)"/>
<path d="M38.7002 98.4626C38.7002 98.4626 80.7432 102.288 103.451 76.1694V40.2214C103.451 40.2214 85.0206 86.9752 38.7002 98.4626Z" fill="url(#paint3_linear_1_7077)"/>
<path opacity="0.63" d="M58.4009 97.7402C72.7268 97.0077 91.6146 93.6703 103.451 82.2744V76.1694C90.8831 90.6178 72.4017 95.8986 58.4009 97.7402Z" fill="url(#paint4_linear_1_7077)" style="mix-blend-mode:multiply"/>
<path d="M5.74052 154.058V186.364C5.74052 188.358 6.13677 189.213 7.05119 189.721V190.118H0V189.721C0.853458 189.213 1.2497 188.358 1.2497 186.364V154.058C1.2497 152.064 0.853458 151.209 0 150.701V150.243H7.05119V150.701C6.13677 151.209 5.74052 152.064 5.74052 154.058Z" fill="#333333"/>
<path d="M39.7062 189.731V190.128H32.655V189.731C33.5694 189.223 33.7929 188.246 33.6202 186.374C33.4475 184.491 32.594 174.866 32.3096 171.905C31.9133 167.632 29.8101 162.788 24.9129 163.755C18.5425 165.006 17.3435 176.921 17.3435 181.704V186.374C17.3435 188.368 17.7398 189.223 18.6542 189.731V190.128H11.603V189.731C12.4565 189.223 12.8527 188.368 12.8527 186.374V167.113C12.8527 165.118 12.68 164.549 11.603 164.376V163.979L16.9473 162.727H17.3435V176.86C18.0852 170.481 20.0157 162.727 27.4123 162.727C32.0759 162.727 36.0587 165.922 36.7394 172.76C37.3084 178.285 37.8774 184.268 38.1009 186.374C38.3244 188.429 38.8426 189.223 39.696 189.731H39.7062Z" fill="#333333"/>
<path d="M62.4041 180.157C61.3271 185.509 58.9293 190.474 52.9551 190.474C47.8953 190.474 44.766 187.168 44.766 180.442V163.175H41.4131V162.717C46.2494 162.717 46.6456 157.65 46.6456 154.913H51.1364C51.1364 159.298 46.8082 162.544 43.3943 162.717H55.9727V163.175H49.2568V181.297C49.2568 186.252 50.6183 190.067 55.4545 189.447C59.2138 188.938 61.0833 184.431 62.1095 180.045L62.3939 180.157H62.4041Z" fill="#333333"/>
<path d="M89.5421 181.063C89.1967 185.112 85.6203 190.464 77.5328 190.464C69.4452 190.464 62.1096 186.588 61.886 177.186C61.6015 167.326 70.5324 163.053 76.7911 162.717C81.6273 162.493 88.2823 164.823 89.0849 171.722H83.7915C87.0326 172.577 89.9892 175.884 89.5421 181.063ZM81.4648 171.722H66.7324C65.9907 174.744 66.1635 178.102 67.1287 180.839C69.2319 186.822 73.4992 189.447 79.3006 189.213C84.1979 188.989 88.4652 185.621 89.0341 181.174C89.7149 175.253 85.793 171.712 81.4648 171.712V171.722ZM66.8442 171.264H84.9904C84.2487 166.309 79.8086 162.32 74.2408 163.399C70.3698 164.142 67.8704 167.387 66.8442 171.264Z" fill="#333333"/>
<path d="M100.586 189.731V190.128H93.5859V189.731C94.4394 189.223 94.8356 188.368 94.8356 186.374V153.438C94.8356 151.443 94.6629 150.873 93.5859 150.701V150.243L98.9302 149.042H99.3265V186.364C99.3265 188.358 99.7227 189.213 100.576 189.721L100.586 189.731Z" fill="#333333"/>
<path d="M111.569 189.731V190.128H104.569V189.731C105.422 189.223 105.819 188.368 105.819 186.374V153.438C105.819 151.443 105.646 150.873 104.569 150.701V150.243L109.913 149.042H110.309V186.364C110.309 188.358 110.706 189.213 111.559 189.721L111.569 189.731Z" fill="#333333"/>
<path d="M145.19 175.364C145.19 184.481 137.397 190.464 129.766 190.464C122.136 190.464 115.542 185.794 115.542 177.817C115.542 168.415 123.335 162.717 130.965 162.717C138.596 162.717 145.19 167.499 145.19 175.364ZM140.414 173.543C138.423 166.706 133.079 161.862 126.586 163.745C120.104 165.627 118.336 172.75 120.327 179.638C122.319 186.475 127.663 191.38 134.156 189.436C140.638 187.554 142.406 180.432 140.414 173.543Z" fill="#333333"/>
<path d="M152.413 179.699L149.172 150.243H156L152.81 179.699H152.413ZM155.716 187.33C155.716 189.04 154.293 190.464 152.586 190.464C150.879 190.464 149.518 189.04 149.518 187.33C149.518 185.621 150.879 184.257 152.586 184.257C154.293 184.257 155.716 185.621 155.716 187.33Z" fill="#333333"/>
<path d="M46.864 204.333L47.0977 204.384L46.295 206.948H39V206.693H39.3556C39.7519 206.693 40.0363 206.561 40.2091 206.307C40.3107 206.164 40.3513 205.818 40.3513 205.279V199.194C40.3513 198.604 40.2903 198.228 40.1583 198.085C39.9754 197.882 39.7112 197.78 39.3556 197.78H39V197.526H43.2673V197.78C43.0133 197.78 42.7999 197.79 42.6272 197.811C42.4545 197.831 42.3224 197.872 42.2106 197.912C42.0989 197.953 42.0176 198.014 41.9566 198.075C41.8957 198.136 41.8449 198.207 41.8042 198.279C41.7331 198.421 41.6925 198.777 41.6925 199.347V205.269C41.6925 205.432 41.6925 205.574 41.7128 205.686C41.7331 205.798 41.7433 205.9 41.7737 205.971C41.8042 206.042 41.8347 206.113 41.8855 206.154C41.9363 206.205 41.9871 206.246 42.0684 206.266C42.1801 206.317 42.5358 206.337 43.1555 206.337H43.8464C44.5678 206.337 45.0758 206.286 45.3704 206.174C45.5228 206.123 45.6549 206.052 45.787 205.961C45.9191 205.869 46.041 205.757 46.163 205.615C46.2849 205.472 46.4068 205.289 46.5287 205.086C46.6506 204.882 46.7726 204.628 46.8945 204.322L46.864 204.333Z" fill="#6C6B69"/>
<path d="M48.9166 202.969C48.9166 203.437 48.9776 203.865 49.0995 204.241C49.2214 204.618 49.3941 204.933 49.6075 205.198C49.8209 205.462 50.0647 205.655 50.3492 205.798C50.6337 205.93 50.9283 206.001 51.2331 206.001C51.6497 206.001 52.0155 205.889 52.3203 205.655C52.6251 205.432 52.8892 205.035 53.0924 204.475L53.3058 204.618C53.255 204.933 53.1534 205.238 53.0112 205.533C52.8689 205.828 52.686 206.103 52.4625 206.337C52.239 206.571 51.9748 206.764 51.6802 206.907C51.3855 207.049 51.0604 207.121 50.7048 207.121C50.3289 207.121 49.9631 207.039 49.6278 206.887C49.2925 206.734 48.9979 206.51 48.7439 206.225C48.4899 205.94 48.2867 205.594 48.1444 205.187C47.992 204.78 47.9209 204.322 47.9209 203.824C47.9209 203.274 47.992 202.786 48.1444 202.349C48.2968 201.921 48.5 201.555 48.7642 201.26C49.0284 200.965 49.3433 200.741 49.6989 200.588C50.0545 200.436 50.4406 200.354 50.8572 200.354C51.2128 200.354 51.5379 200.415 51.8326 200.537C52.1272 200.66 52.3914 200.832 52.6048 201.067C52.8181 201.301 52.9908 201.565 53.1128 201.88C53.2347 202.196 53.2956 202.552 53.2956 202.949H48.8963L48.9166 202.969ZM48.9166 202.572H51.8631C51.8427 202.165 51.7919 201.881 51.7208 201.708C51.609 201.453 51.4363 201.239 51.2026 201.097C50.969 200.955 50.7353 200.873 50.4813 200.873C50.2882 200.873 50.1053 200.914 49.9326 200.985C49.7599 201.066 49.5973 201.178 49.4551 201.321C49.3128 201.463 49.1909 201.646 49.0995 201.85C49.008 202.053 48.9471 202.298 48.9268 202.562L48.9166 202.572Z" fill="#6C6B69"/>
<path d="M57.7657 206.022C57.1155 206.531 56.6989 206.826 56.5364 206.897C56.2925 207.009 56.0284 207.07 55.7337 207.07C55.5203 207.07 55.3171 207.029 55.1342 206.948C54.9514 206.866 54.7888 206.754 54.6567 206.612C54.5246 206.47 54.4129 206.297 54.3417 206.093C54.2605 205.89 54.23 205.666 54.23 205.422C54.23 205.238 54.2503 205.076 54.3011 204.923C54.3519 204.77 54.423 204.628 54.5246 204.485C54.6262 204.353 54.7482 204.221 54.9006 204.089C55.053 203.956 55.2257 203.844 55.4289 203.722C55.9064 203.437 56.6888 203.102 57.7759 202.705V202.45C57.7759 202.135 57.7454 201.86 57.6946 201.647C57.6438 201.433 57.5625 201.26 57.4609 201.138C57.3593 201.006 57.2374 200.924 57.085 200.863C56.9326 200.812 56.77 200.782 56.5872 200.782C56.4348 200.782 56.3027 200.802 56.1909 200.843C56.069 200.883 55.9674 200.945 55.8861 201.016C55.8048 201.087 55.7439 201.168 55.6931 201.27C55.6524 201.362 55.6321 201.463 55.6321 201.555V201.962C55.6423 202.176 55.5915 202.339 55.4797 202.461C55.3679 202.583 55.2257 202.634 55.053 202.634C54.8802 202.634 54.738 202.573 54.6364 202.45C54.5348 202.328 54.4738 202.166 54.4738 201.952C54.4738 201.759 54.5246 201.565 54.6262 201.372C54.7278 201.179 54.8802 201.006 55.0733 200.853C55.2663 200.7 55.5102 200.578 55.8048 200.487C56.0995 200.395 56.4246 200.344 56.7904 200.344C57.2781 200.344 57.6946 200.415 58.0401 200.558C58.3855 200.7 58.6294 200.945 58.7818 201.301C58.8631 201.504 58.9037 201.911 58.9037 202.522V204.689C58.9037 204.994 58.9037 205.238 58.9138 205.422C58.924 205.605 58.924 205.737 58.9342 205.808C58.9545 205.94 58.9951 206.032 59.0459 206.083C59.0967 206.134 59.1577 206.154 59.2288 206.154C59.2796 206.154 59.3203 206.154 59.3609 206.134C59.4015 206.113 59.4523 206.093 59.5031 206.052C59.5539 206.012 59.6251 205.951 59.6962 205.879C59.7673 205.808 59.8689 205.717 59.9807 205.594V205.981C59.4523 206.673 58.9647 207.029 58.4973 207.029C58.2738 207.029 58.0909 206.948 57.9588 206.795C57.8267 206.643 57.7454 206.368 57.7454 205.991L57.7657 206.022ZM57.7657 205.574V203.142C57.4101 203.285 57.1256 203.397 56.9021 203.498C56.6786 203.6 56.516 203.671 56.4144 203.732C56.0487 203.946 55.7845 204.16 55.6321 204.373C55.4797 204.597 55.3984 204.842 55.3984 205.096C55.3984 205.259 55.4289 205.421 55.4797 205.564C55.5305 205.706 55.6016 205.829 55.6931 205.93C55.7845 206.032 55.8861 206.113 56.008 206.174C56.1299 206.235 56.2519 206.256 56.384 206.256C56.7396 206.256 57.1968 206.022 57.7759 205.564L57.7657 205.574Z" fill="#6C6B69"/>
<path d="M62.3381 200.385V201.819C62.8766 200.863 63.4252 200.385 63.9739 200.385C64.0958 200.385 64.2177 200.405 64.3193 200.446C64.4209 200.486 64.5225 200.547 64.6038 200.619C64.6851 200.69 64.746 200.771 64.7867 200.863C64.8273 200.954 64.8477 201.056 64.8477 201.158C64.8477 201.341 64.7867 201.494 64.6648 201.616C64.5429 201.738 64.4006 201.799 64.238 201.799C64.1568 201.799 64.0755 201.768 63.9739 201.718C63.8723 201.667 63.7808 201.616 63.6894 201.555C63.598 201.494 63.5065 201.443 63.4252 201.392C63.3439 201.341 63.283 201.311 63.2423 201.311C63.1814 201.311 63.1103 201.341 63.0391 201.392C62.968 201.443 62.8867 201.524 62.8055 201.616C62.7242 201.707 62.6429 201.83 62.5616 201.962C62.4803 202.094 62.399 202.237 62.3178 202.399V205.452C62.3178 205.645 62.3279 205.818 62.3482 205.971C62.3686 206.123 62.4194 206.256 62.5006 206.357C62.5819 206.459 62.6937 206.551 62.8359 206.602C62.9883 206.663 63.1814 206.693 63.4252 206.693V206.947H60.1638V206.693C60.367 206.693 60.5296 206.683 60.6616 206.652C60.7937 206.622 60.8953 206.571 60.9665 206.49C61.0376 206.408 61.0884 206.286 61.1189 206.134C61.1493 205.981 61.1595 205.777 61.1595 205.513V203.04C61.1595 202.287 61.1392 201.85 61.1087 201.718C61.0477 201.443 60.8953 201.311 60.6413 201.311C60.4991 201.311 60.3365 201.341 60.1536 201.412L60.0825 201.158L62.0028 200.375H62.2974L62.3381 200.385Z" fill="#6C6B69"/>
<path d="M67.0624 201.738C67.8041 200.843 68.5153 200.385 69.196 200.385C69.4297 200.385 69.6533 200.425 69.8463 200.507C70.0393 200.588 70.2222 200.721 70.3645 200.904C70.5067 201.087 70.6286 201.331 70.7099 201.636C70.7912 201.942 70.8318 202.328 70.8318 202.786V205.503C70.8318 205.777 70.842 205.991 70.8725 206.154C70.903 206.317 70.9538 206.429 71.0249 206.51C71.096 206.591 71.1976 206.642 71.3195 206.663C71.4415 206.683 71.604 206.693 71.7869 206.693V206.948H68.6372V206.693H68.7693C68.9827 206.693 69.1452 206.673 69.257 206.642C69.3688 206.612 69.4602 206.541 69.5212 206.449C69.5821 206.357 69.6228 206.235 69.6329 206.083C69.6431 205.93 69.6533 205.737 69.6533 205.503V202.898C69.6533 202.318 69.5821 201.901 69.4297 201.636C69.2773 201.372 69.0233 201.239 68.6677 201.239C68.1191 201.239 67.5704 201.545 67.0218 202.145V205.503C67.0218 205.93 67.0421 206.195 67.103 206.307C67.1335 206.378 67.1741 206.439 67.2148 206.49C67.2554 206.541 67.3062 206.581 67.3774 206.612C67.4485 206.642 67.5298 206.663 67.6415 206.683C67.7533 206.703 67.8955 206.703 68.0683 206.703V206.958H64.9186V206.703H65.0608C65.2234 206.703 65.3656 206.683 65.4672 206.653C65.5688 206.622 65.6603 206.551 65.7213 206.459C65.7822 206.368 65.8228 206.246 65.8533 206.093C65.8736 205.94 65.8838 205.747 65.8838 205.523V203.163C65.8838 202.41 65.8635 201.942 65.833 201.769C65.8025 201.606 65.7517 201.484 65.6806 201.433C65.6095 201.382 65.5079 201.341 65.3961 201.341C65.264 201.341 65.1116 201.372 64.9287 201.443L64.8271 201.189L66.7474 200.405H67.0421V201.758L67.0624 201.738Z" fill="#6C6B69"/>
<path d="M74.5202 200.385V205.503C74.5202 205.706 74.5202 205.869 74.5405 206.001C74.5507 206.123 74.571 206.235 74.6015 206.307C74.632 206.378 74.6624 206.449 74.7132 206.48C74.7539 206.52 74.8047 206.551 74.8657 206.592C74.9876 206.653 75.1908 206.693 75.4956 206.693V206.948H72.4069V206.693C72.5593 206.693 72.6914 206.693 72.793 206.673C72.8946 206.653 72.9759 206.632 73.0368 206.602C73.0978 206.571 73.1486 206.53 73.1791 206.48C73.2095 206.429 73.2502 206.368 73.2806 206.307C73.3416 206.164 73.3823 205.9 73.3823 205.503V203.051C73.3823 202.644 73.3823 202.328 73.3619 202.094C73.3416 201.86 73.3213 201.687 73.2908 201.575C73.2603 201.463 73.2095 201.382 73.1384 201.362C73.0673 201.331 72.986 201.321 72.8844 201.321C72.7523 201.321 72.5999 201.351 72.417 201.423L72.3154 201.168L74.2357 200.385H74.5405H74.5202ZM73.9411 197.058C74.0427 197.058 74.1341 197.078 74.2154 197.108C74.2967 197.139 74.378 197.2 74.4389 197.261C74.4999 197.322 74.5507 197.393 74.5913 197.485C74.632 197.566 74.6421 197.658 74.6421 197.76C74.6421 197.861 74.6218 197.953 74.5913 198.034C74.5507 198.116 74.4999 198.197 74.4389 198.258C74.378 198.319 74.3068 198.37 74.2154 198.411C74.124 198.452 74.0427 198.462 73.9411 198.462C73.8395 198.462 73.748 198.441 73.6667 198.411C73.5855 198.38 73.5042 198.319 73.4432 198.258C73.3823 198.197 73.3315 198.116 73.2908 198.034C73.2502 197.953 73.24 197.861 73.24 197.76C73.24 197.658 73.2603 197.566 73.2908 197.485C73.3315 197.404 73.3823 197.322 73.4432 197.261C73.5042 197.2 73.5855 197.149 73.6667 197.108C73.748 197.068 73.8496 197.058 73.9411 197.058Z" fill="#6C6B69"/>
<path d="M78.1268 201.738C78.8685 200.843 79.5798 200.385 80.2605 200.385C80.4942 200.385 80.7177 200.425 80.9108 200.507C81.1038 200.588 81.2867 200.721 81.4289 200.904C81.5712 201.087 81.6931 201.331 81.7744 201.636C81.8556 201.942 81.8963 202.328 81.8963 202.786V205.503C81.8963 205.777 81.9064 205.991 81.9369 206.154C81.9674 206.317 82.0182 206.429 82.0893 206.51C82.1605 206.591 82.2621 206.642 82.384 206.663C82.5059 206.683 82.6685 206.693 82.8514 206.693V206.948H79.7017V206.693H79.8338C80.0471 206.693 80.2097 206.673 80.3215 206.642C80.4332 206.612 80.5247 206.541 80.5856 206.449C80.6466 206.357 80.6872 206.235 80.6974 206.083C80.7075 205.93 80.7177 205.737 80.7177 205.503V202.898C80.7177 202.318 80.6466 201.901 80.4942 201.636C80.3418 201.372 80.0878 201.239 79.7322 201.239C79.1835 201.239 78.6349 201.545 78.0862 202.145V205.503C78.0862 205.93 78.1065 206.195 78.1675 206.307C78.198 206.378 78.2386 206.439 78.2793 206.49C78.3199 206.541 78.3707 206.581 78.4418 206.612C78.5129 206.642 78.5942 206.663 78.706 206.683C78.8177 206.703 78.96 206.703 79.1327 206.703V206.958H75.983V206.703H76.1253C76.2878 206.703 76.4301 206.683 76.5317 206.653C76.6333 206.622 76.7247 206.551 76.7857 206.459C76.8467 206.368 76.8873 206.246 76.9178 206.093C76.9381 205.94 76.9483 205.747 76.9483 205.523V203.163C76.9483 202.41 76.9279 201.942 76.8975 201.769C76.867 201.606 76.8162 201.484 76.7451 201.433C76.6739 201.382 76.5723 201.341 76.4606 201.341C76.3285 201.341 76.1761 201.372 75.9932 201.443L75.8916 201.189L77.8119 200.405H78.1065V201.758L78.1268 201.738Z" fill="#6C6B69"/>
<path d="M85.0866 204.618C84.6904 204.424 84.3957 204.16 84.1824 203.824C83.9791 203.488 83.8775 203.112 83.8775 202.694C83.8775 202.379 83.9385 202.084 84.0604 201.799C84.1823 201.514 84.3652 201.27 84.5888 201.066C84.8123 200.863 85.0866 200.69 85.3914 200.568C85.6962 200.446 86.0417 200.385 86.4074 200.385C87.0171 200.385 87.5454 200.537 87.9823 200.832H89.3336C89.4352 200.832 89.5165 200.832 89.5673 200.832C89.6181 200.832 89.6587 200.832 89.6892 200.843C89.7095 200.843 89.7298 200.863 89.7298 200.863C89.7298 200.863 89.74 200.883 89.7501 200.894C89.7806 200.934 89.7908 201.005 89.7908 201.117C89.7908 201.189 89.7908 201.239 89.7908 201.29C89.7908 201.331 89.7705 201.372 89.7501 201.392C89.7298 201.412 89.679 201.433 89.6181 201.433C89.5571 201.433 89.4657 201.443 89.3336 201.443H88.5106C88.7748 201.779 88.8967 202.206 88.8967 202.725C88.8967 203.02 88.8357 203.295 88.724 203.559C88.602 203.824 88.4395 204.048 88.216 204.241C87.9924 204.434 87.7384 204.587 87.4235 204.709C87.1085 204.831 86.763 204.882 86.3871 204.882C86.0721 204.882 85.7572 204.831 85.4219 204.74C85.2085 204.913 85.0764 205.075 85.0053 205.198C84.9342 205.33 84.9037 205.442 84.9037 205.533C84.9037 205.604 84.9139 205.666 84.9444 205.716C84.9748 205.767 85.0358 205.808 85.1374 205.849C85.239 205.879 85.3914 205.91 85.5946 205.93C85.7978 205.95 86.0721 205.971 86.4277 205.971C86.9053 205.981 87.3015 206.001 87.6063 206.011C87.9111 206.022 88.1448 206.042 88.2871 206.062C88.5004 206.093 88.6935 206.144 88.8662 206.225C89.0389 206.307 89.1913 206.408 89.3132 206.541C89.4352 206.673 89.5266 206.805 89.5977 206.968C89.6689 207.131 89.6993 207.304 89.6993 207.497C89.6993 208.016 89.4555 208.515 88.9678 208.972C88.2363 209.654 87.3015 209.99 86.1433 209.99C85.8283 209.99 85.5032 209.959 85.1679 209.888C84.8326 209.817 84.538 209.725 84.2738 209.603C84.0096 209.481 83.7861 209.349 83.6134 209.186C83.4407 209.023 83.3594 208.85 83.3594 208.667C83.3594 208.596 83.3695 208.525 83.3899 208.453C83.4102 208.382 83.4406 208.301 83.4914 208.219C83.5321 208.138 83.593 208.046 83.6642 207.955C83.7353 207.863 83.8267 207.741 83.9283 207.619C83.9588 207.578 84.1925 207.324 84.6396 206.866C84.3957 206.724 84.2331 206.591 84.1315 206.48C84.0299 206.368 83.9791 206.235 83.9791 206.093C83.9791 206.012 83.9893 205.92 84.0096 205.828C84.0299 205.737 84.0807 205.635 84.162 205.523C84.2433 205.411 84.3551 205.279 84.4973 205.126C84.6396 204.974 84.8428 204.801 85.0866 204.597V204.618ZM85.0155 206.948C84.5786 207.426 84.3551 207.833 84.3551 208.169C84.3551 208.321 84.416 208.464 84.5481 208.586C84.6802 208.708 84.8428 208.82 85.0663 208.901C85.2898 208.983 85.5438 209.054 85.8385 209.105C86.1331 209.156 86.4481 209.176 86.7732 209.176C87.1898 209.176 87.5555 209.135 87.8603 209.054C88.1652 208.972 88.4192 208.86 88.6224 208.728C88.8256 208.596 88.9678 208.443 89.0694 208.281C89.171 208.118 89.2117 207.955 89.2117 207.792C89.2117 207.67 89.1913 207.568 89.1304 207.487C89.0694 207.405 88.9881 207.334 88.856 207.283C88.724 207.232 88.5411 207.192 88.3074 207.161C88.0737 207.131 87.7791 207.11 87.4133 207.1C86.885 207.09 86.4278 207.07 86.0315 207.039C85.6353 207.009 85.2898 206.978 85.0155 206.937V206.948ZM86.2957 200.721C86.1331 200.721 85.9705 200.751 85.8283 200.822C85.6759 200.894 85.554 200.995 85.4422 201.128C85.3304 201.26 85.2492 201.443 85.1882 201.646C85.1272 201.86 85.0968 202.104 85.0968 202.389C85.0968 202.705 85.1272 202.99 85.1882 203.254C85.2492 203.519 85.3406 203.743 85.4625 203.936C85.5845 204.129 85.7267 204.282 85.8994 204.384C86.0722 204.485 86.2652 204.546 86.4786 204.546C86.6513 204.546 86.8138 204.516 86.9662 204.445C87.1186 204.373 87.2406 204.282 87.3523 204.149C87.4641 204.017 87.5454 203.844 87.6063 203.641C87.6673 203.437 87.6978 203.193 87.6978 202.908C87.6978 202.593 87.6673 202.308 87.6063 202.043C87.5454 201.779 87.4539 201.545 87.332 201.351C87.2101 201.158 87.0679 201.005 86.8951 200.894C86.7224 200.782 86.5294 200.731 86.3058 200.731L86.2957 200.721Z" fill="#6C6B69"/>
<path d="M99.3316 203.783H95.6841L95.044 205.269C94.8916 205.635 94.8103 205.9 94.8103 206.093C94.8103 206.164 94.8205 206.235 94.8509 206.296C94.8713 206.358 94.9322 206.419 95.0033 206.469C95.0846 206.52 95.1964 206.571 95.3386 206.602C95.4809 206.642 95.6739 206.663 95.8974 206.683V206.937H92.9307V206.683C93.3168 206.612 93.5708 206.52 93.6927 206.408C93.8146 206.296 93.9365 206.134 94.0686 205.9C94.2007 205.676 94.3328 205.391 94.4852 205.045L97.7974 197.281H98.0413L101.323 205.126C101.455 205.452 101.577 205.717 101.699 205.91C101.811 206.103 101.933 206.256 102.055 206.368C102.176 206.48 102.309 206.551 102.451 206.592C102.593 206.632 102.756 206.663 102.959 206.673V206.927H99.2402V206.673C99.423 206.673 99.5754 206.642 99.7075 206.612C99.8396 206.581 99.931 206.541 100.002 206.49C100.073 206.439 100.124 206.378 100.155 206.317C100.185 206.256 100.195 206.185 100.195 206.103C100.195 206.001 100.175 205.869 100.134 205.706C100.083 205.544 100.012 205.36 99.9209 205.137L99.3519 203.783H99.3316ZM99.1386 203.275L97.5434 199.459L95.9076 203.275H99.1487H99.1386Z" fill="#6C6B69"/>
<path d="M103.08 201.209L105.041 200.415H105.305V201.901C105.468 201.626 105.641 201.382 105.803 201.189C105.966 200.995 106.128 200.843 106.301 200.721C106.464 200.598 106.636 200.517 106.809 200.466C106.982 200.415 107.165 200.385 107.337 200.385C107.703 200.385 108.028 200.466 108.323 200.639C108.618 200.812 108.872 201.036 109.075 201.321C109.278 201.606 109.441 201.942 109.552 202.318C109.664 202.694 109.725 203.101 109.725 203.539C109.725 204.017 109.654 204.485 109.522 204.923C109.39 205.36 109.187 205.747 108.943 206.073C108.699 206.398 108.384 206.663 108.028 206.856C107.673 207.049 107.266 207.151 106.829 207.151C106.677 207.151 106.535 207.151 106.403 207.131C106.271 207.11 106.149 207.09 106.027 207.049C105.905 207.009 105.793 206.948 105.671 206.876C105.559 206.805 105.437 206.703 105.305 206.591V208.535C105.305 208.759 105.305 208.942 105.326 209.074C105.336 209.206 105.356 209.308 105.387 209.379C105.417 209.451 105.448 209.501 105.498 209.542C105.549 209.583 105.6 209.613 105.661 209.644C105.793 209.715 106.027 209.746 106.382 209.746V210H103.05V209.746H103.223C103.405 209.746 103.578 209.715 103.741 209.664C103.903 209.613 104.015 209.501 104.076 209.349C104.127 209.237 104.157 208.942 104.157 208.484V202.46C104.157 202.216 104.157 202.023 104.137 201.87C104.117 201.728 104.096 201.616 104.046 201.535C103.995 201.453 103.944 201.402 103.873 201.382C103.802 201.351 103.71 201.341 103.598 201.341C103.497 201.341 103.355 201.372 103.172 201.443L103.09 201.219L103.08 201.209ZM105.305 202.308V204.689C105.305 205.208 105.326 205.543 105.366 205.706C105.397 205.839 105.458 205.971 105.539 206.093C105.62 206.215 105.722 206.327 105.844 206.419C105.966 206.51 106.108 206.581 106.271 206.642C106.433 206.703 106.606 206.724 106.799 206.724C107.063 206.724 107.307 206.663 107.52 206.53C107.734 206.398 107.906 206.225 108.049 206.001C108.191 205.777 108.303 205.513 108.374 205.198C108.445 204.882 108.486 204.546 108.486 204.18C108.486 203.783 108.445 203.417 108.364 203.071C108.282 202.735 108.171 202.44 108.018 202.186C107.866 201.942 107.693 201.738 107.48 201.606C107.266 201.463 107.043 201.392 106.789 201.392C106.677 201.392 106.565 201.412 106.453 201.443C106.342 201.473 106.24 201.535 106.118 201.616C106.006 201.687 105.874 201.789 105.742 201.901C105.61 202.013 105.458 202.155 105.295 202.308H105.305Z" fill="#6C6B69"/>
<path d="M110.193 201.209L112.154 200.415H112.418V201.901C112.58 201.626 112.753 201.382 112.916 201.189C113.078 200.995 113.241 200.843 113.413 200.721C113.576 200.598 113.749 200.517 113.921 200.466C114.094 200.415 114.277 200.385 114.45 200.385C114.805 200.385 115.141 200.466 115.435 200.639C115.73 200.802 115.984 201.036 116.187 201.321C116.39 201.606 116.553 201.942 116.665 202.318C116.776 202.694 116.837 203.101 116.837 203.539C116.837 204.017 116.766 204.485 116.634 204.923C116.502 205.36 116.299 205.747 116.055 206.073C115.801 206.398 115.496 206.663 115.141 206.856C114.785 207.049 114.389 207.151 113.942 207.151C113.789 207.151 113.647 207.151 113.515 207.131C113.383 207.11 113.261 207.09 113.139 207.049C113.017 207.009 112.905 206.948 112.783 206.876C112.672 206.805 112.55 206.703 112.418 206.591V208.535C112.418 208.759 112.418 208.942 112.438 209.074C112.448 209.206 112.468 209.308 112.499 209.379C112.529 209.451 112.56 209.501 112.611 209.542C112.662 209.583 112.712 209.613 112.773 209.644C112.905 209.715 113.139 209.746 113.495 209.746V210H110.162V209.746H110.335C110.518 209.746 110.69 209.715 110.853 209.664C111.016 209.613 111.127 209.501 111.188 209.349C111.239 209.237 111.27 208.942 111.27 208.484V202.46C111.27 202.216 111.27 202.023 111.249 201.87C111.229 201.728 111.209 201.616 111.158 201.535C111.107 201.453 111.056 201.402 110.985 201.382C110.914 201.351 110.823 201.341 110.711 201.341C110.609 201.341 110.467 201.372 110.284 201.443L110.203 201.219L110.193 201.209ZM112.418 202.308V204.689C112.418 205.208 112.438 205.543 112.479 205.706C112.509 205.839 112.57 205.971 112.651 206.093C112.733 206.215 112.834 206.327 112.956 206.419C113.078 206.51 113.22 206.581 113.383 206.642C113.545 206.703 113.718 206.724 113.911 206.724C114.175 206.724 114.419 206.663 114.633 206.53C114.846 206.398 115.019 206.225 115.161 206.001C115.303 205.777 115.415 205.513 115.486 205.198C115.557 204.882 115.598 204.546 115.598 204.18C115.598 203.783 115.557 203.417 115.476 203.071C115.395 202.735 115.283 202.44 115.13 202.186C114.978 201.942 114.805 201.738 114.592 201.606C114.389 201.463 114.155 201.392 113.901 201.392C113.789 201.392 113.678 201.412 113.566 201.443C113.454 201.473 113.352 201.535 113.23 201.616C113.119 201.687 112.987 201.789 112.855 201.901C112.722 202.013 112.57 202.155 112.408 202.308H112.418Z" fill="#6C6B69"/>
<defs>
<linearGradient id="paint0_linear_1_7077" x1="40.458" y1="112.677" x2="91.2202" y2="-5.29878" gradientUnits="userSpaceOnUse">
<stop stop-color="#FF5A1C"/>
<stop offset="1" stop-color="#FFD727"/>
</linearGradient>
<linearGradient id="paint1_linear_1_7077" x1="69.7601" y1="124.175" x2="119.626" y2="8.25328" gradientUnits="userSpaceOnUse">
<stop stop-color="#FF5A1C"/>
<stop offset="1" stop-color="#FFD727"/>
</linearGradient>
<linearGradient id="paint2_linear_1_7077" x1="87.6217" y1="107.274" x2="67.8391" y2="139.127" gradientUnits="userSpaceOnUse">
<stop stop-color="#FFD727"/>
<stop offset="1" stop-color="#FF5A1C"/>
</linearGradient>
<linearGradient id="paint3_linear_1_7077" x1="139.124" y1="21.4691" x2="48.0626" y2="109.513" gradientUnits="userSpaceOnUse">
<stop stop-color="#FF6E3B"/>
<stop offset="1" stop-color="#FFD727"/>
</linearGradient>
<linearGradient id="paint4_linear_1_7077" x1="114.577" y1="57.3764" x2="64.9967" y2="105.31" gradientUnits="userSpaceOnUse">
<stop stop-color="#FFD727"/>
<stop offset="1" stop-color="#FF5A1C"/>
</linearGradient>
</defs>
</svg>
