<svg width="24" height="24" viewBox="0 0 24 24" fill="none" xmlns="http://www.w3.org/2000/svg">
<path d="M24 12C24 18.6274 18.6274 24 12 24C5.37258 24 0 18.6274 0 12C0 5.37258 5.37258 0 12 0C18.6274 0 24 5.37258 24 12Z" fill="white"/>
<path fill-rule="evenodd" clip-rule="evenodd" d="M12 22.2C17.6333 22.2 22.2 17.6333 22.2 12C22.2 6.3667 17.6333 1.8 12 1.8C6.3667 1.8 1.8 6.3667 1.8 12C1.8 17.6333 6.3667 22.2 12 22.2ZM12 24C18.6274 24 24 18.6274 24 12C24 5.37258 18.6274 0 12 0C5.37258 0 0 5.37258 0 12C0 18.6274 5.37258 24 12 24Z" fill="#FF9900"/>
<path d="M15.3026 11.0015C16.015 11.4765 16.015 12.5235 15.3026 12.9985L11.4659 15.5562C10.6684 16.0879 9.60024 15.5162 9.60024 14.5578L9.60024 9.44222C9.60024 8.48379 10.6684 7.91212 11.4659 8.44376L15.3026 11.0015Z" fill="#FF9900"/>
</svg>
