<svg width="768" height="1024" viewBox="0 0 768 1024" fill="none" xmlns="http://www.w3.org/2000/svg">
<rect width="768" height="1024" fill="url(#paint0_linear_1_1635)"/>
<mask id="mask0_1_1635" style="mask-type:luminance" maskUnits="userSpaceOnUse" x="0" y="257" width="768" height="510">
<path d="M768 257H0V767H768V257Z" fill="white"/>
</mask>
<g mask="url(#mask0_1_1635)">
<path d="M-85.1841 420.583C-54.5921 385.648 -2.81608 378.635 38.0159 403.816C70.2719 423.706 94.4639 460.49 127.936 476.938C176.768 500.844 228.608 474.834 272.896 448.569C317.184 422.304 368 394.955 417.472 416.503C436.864 424.981 453.824 440.281 472.128 451.884C490.432 463.55 512.128 471.646 530.56 464.06C550.016 456.028 560.64 433.078 574.272 415.419C600.32 381.504 641.792 364.801 682.432 371.878C723.072 378.954 761.92 409.618 783.68 451.884" stroke="#BFE0E0" stroke-miterlimit="10"/>
<path d="M-83.7759 433.46C-59.1359 404.135 -19.8399 393.425 16.1281 404.135C23.6161 406.366 30.9761 409.49 38.0801 413.57C58.8801 425.619 76.6721 444.744 95.5521 461.319C106.048 470.626 116.928 479.041 129.024 484.906C132.224 486.436 135.424 487.775 138.624 488.923C156.544 495.298 174.784 495.489 192.704 491.6C211.456 487.52 229.952 479.233 247.744 469.861C256.64 465.208 265.344 460.235 273.856 455.39C304 438.05 337.28 420.901 370.88 417.778C387.008 416.311 403.072 417.841 418.944 424.216C438.208 431.93 455.04 446.019 473.088 456.601C477.056 458.896 481.088 461.064 485.312 462.913C500.224 469.606 516.416 472.666 530.752 466.483C550.144 458.131 561.088 435.5 574.976 418.16C576.832 415.865 578.752 413.57 580.8 411.466C607.36 382.843 646.016 369.646 683.904 376.34C687.616 376.978 691.328 377.806 694.976 378.89C731.648 389.09 765.696 417.778 785.792 456.028" stroke="#BFE0E0" stroke-miterlimit="10"/>
<path d="M-82.3682 446.401C-58.3682 416.63 -19.7122 405.091 16.1278 414.654C23.6158 416.63 30.9758 419.563 38.0798 423.388C59.0718 434.735 77.1838 453.223 96.2558 469.606C106.88 478.786 117.824 487.201 129.92 493.003C133.12 494.533 136.32 495.871 139.52 497.019C157.568 503.394 175.808 503.585 193.664 499.314C212.352 494.915 230.528 486.245 248.384 476.81C257.28 472.093 266.048 467.184 274.624 462.466C304.96 445.509 338.432 429.571 372.16 426.575C388.416 425.109 404.48 426.384 420.224 432.185C439.424 439.134 456.064 452.011 473.792 461.51C477.696 463.614 481.664 465.526 485.824 467.184C500.48 473.113 516.416 475.599 530.624 469.224C549.888 460.554 561.216 438.241 575.36 421.22C577.28 418.925 579.264 416.758 581.248 414.654C608.256 386.731 646.976 374.3 684.992 381.058C688.704 381.695 692.416 382.588 696.128 383.608C732.928 393.808 767.168 422.24 787.648 460.426" stroke="#BFE0E0" stroke-miterlimit="10"/>
<path d="M-80.896 459.279C-57.6 429.061 -19.52 416.694 16.128 425.109C23.616 426.894 30.976 429.507 38.144 433.141C59.264 443.787 77.76 461.637 97.088 477.83C107.84 486.882 118.848 495.234 131.008 501.035C134.208 502.565 137.408 503.904 140.672 505.051C158.784 511.426 177.088 511.554 194.816 506.964C213.376 502.246 231.36 493.194 249.216 483.631C258.176 478.85 266.944 474.005 275.584 469.415C306.176 452.904 339.84 438.114 373.632 435.245C390.016 433.843 406.08 434.863 421.696 440.026C440.768 446.274 457.216 457.94 474.752 466.355C478.592 468.204 482.496 469.925 486.528 471.328C500.928 476.491 516.608 478.34 530.752 471.774C549.952 462.721 561.536 440.791 576 424.153C577.92 421.921 579.968 419.754 582.016 417.714C609.472 390.429 648.256 378.762 686.336 385.584C690.048 386.285 693.824 387.114 697.472 388.134C734.464 398.27 768.832 426.575 789.632 464.697" stroke="#BFE0E0" stroke-miterlimit="10"/>
<path d="M-79.4883 472.156C-56.8323 441.493 -19.3923 428.296 16.1277 435.628C23.6157 437.158 30.9757 439.58 38.2077 442.959C59.4557 452.968 78.3357 470.116 97.9197 486.118C108.736 495.043 119.872 503.33 132.096 509.195C135.296 510.725 138.56 512.064 141.76 513.211C159.936 519.586 178.304 519.65 195.968 514.678C214.464 509.578 232.192 500.143 250.048 490.58C259.008 485.735 267.84 481.018 276.544 476.491C307.328 460.363 341.248 446.784 375.104 443.979C391.616 442.64 407.616 443.341 423.232 447.868C442.176 453.35 458.496 463.805 475.712 471.136C479.488 472.73 483.328 474.196 487.296 475.408C501.44 479.743 516.928 481.145 530.944 474.324C550.08 465.016 561.984 443.341 576.704 427.021C578.688 424.854 580.736 422.75 582.848 420.71C610.816 394.19 649.664 383.225 687.808 390.11C691.584 390.811 695.296 391.64 699.008 392.66C736.128 402.733 770.688 430.846 791.808 468.905" stroke="#BFE0E0" stroke-miterlimit="10"/>
<path d="M-78.0801 485.098C-56.0641 453.988 -19.2641 439.899 16.1279 446.146C23.6159 447.485 31.0399 449.653 38.2079 452.776C59.5839 462.084 78.8479 478.595 98.6239 494.405C109.568 503.203 120.768 511.49 132.992 517.291C136.192 518.821 139.456 520.16 142.72 521.308C160.96 527.683 179.392 527.619 196.992 522.391C215.36 516.909 232.896 507.155 250.688 497.529C259.648 492.62 268.544 487.966 277.312 483.504C308.288 467.821 342.464 455.39 376.384 452.713C392.96 451.438 409.024 451.884 424.512 455.773C443.328 460.554 459.52 469.734 476.48 475.981C480.192 477.32 483.968 478.595 487.872 479.551C501.76 483.121 516.992 483.886 530.88 476.874C549.952 467.248 562.112 445.828 577.152 429.89C579.2 427.723 581.248 425.683 583.424 423.77C611.84 397.888 650.752 387.688 689.024 394.7C692.8 395.401 696.512 396.23 700.224 397.25C737.472 407.323 772.224 435.245 793.728 473.176" stroke="#BFE0E0" stroke-miterlimit="10"/>
<path d="M-76.6719 497.975C-55.3599 466.419 -19.0719 451.501 16.0641 456.601C23.4881 457.685 30.9761 459.597 38.2081 462.53C59.7121 471.136 79.3601 487.01 99.3921 502.629C110.4 511.299 121.728 519.522 134.016 525.324C137.28 526.854 140.48 528.193 143.744 529.276C162.048 535.651 180.48 535.524 198.08 529.978C216.32 524.176 233.664 514.04 251.456 504.286C260.48 499.377 269.376 494.724 278.208 490.389C309.376 475.153 343.808 463.869 377.792 461.319C394.496 460.107 410.56 460.235 425.92 463.55C444.672 467.566 460.672 475.599 477.376 480.762C481.024 481.91 484.736 482.93 488.576 483.695C502.208 486.5 517.248 486.691 531.008 479.487C549.952 469.542 562.496 448.441 577.856 432.886C579.904 430.782 582.08 428.806 584.256 426.894C613.056 401.712 652.16 392.277 690.432 399.354C694.208 400.055 697.92 400.884 701.696 401.904C739.136 411.912 774.016 439.644 795.84 477.511" stroke="#BFE0E0" stroke-miterlimit="10"/>
<path d="M-75.2642 510.853C-54.5922 478.914 -18.9441 463.04 16.0639 467.12C23.4879 467.949 30.9758 469.67 38.2718 472.284C59.9678 480.189 79.9359 495.425 100.224 510.853C111.36 519.395 122.688 527.619 135.104 533.356C138.368 534.886 141.632 536.225 144.896 537.309C163.328 543.684 181.76 543.493 199.296 537.564C217.472 531.444 234.56 520.861 252.352 511.108C261.376 506.135 270.336 501.545 279.232 497.338C310.592 482.484 345.216 472.475 379.328 469.989C396.16 468.841 412.16 468.65 427.456 471.391C446.08 474.706 461.952 481.464 478.336 485.544C481.92 486.436 485.568 487.201 489.344 487.775C502.656 489.751 517.504 489.433 531.2 481.974C550.08 471.71 562.88 450.928 578.56 435.691C580.672 433.651 582.848 431.675 585.088 429.826C614.336 405.346 653.504 396.613 691.904 403.816C695.68 404.518 699.456 405.346 703.168 406.366C740.736 416.375 775.808 443.915 798.016 481.655" stroke="#BFE0E0" stroke-miterlimit="10"/>
<path d="M-73.856 523.794C-53.824 491.409 -18.752 474.706 16.064 477.639C23.4881 478.276 30.976 479.679 38.272 482.101C60.096 489.305 80.4481 503.904 100.928 519.14C112.192 527.491 123.584 535.715 136 541.453C139.264 542.983 142.528 544.258 145.792 545.405C164.288 551.716 182.784 551.525 200.256 545.278C218.304 538.775 235.2 527.874 252.992 517.993C262.016 512.956 271.04 508.43 280 504.35C311.552 489.943 346.432 481.081 380.608 478.723C397.568 477.575 413.568 477.193 428.736 479.296C447.296 481.846 462.912 487.456 479.104 490.389C482.624 491.026 486.208 491.6 489.92 491.919C502.976 493.13 517.568 492.238 531.136 484.588C549.888 474.005 563.072 453.541 579.008 438.624C581.184 436.648 583.36 434.735 585.664 432.886C615.36 409.044 654.592 401.139 693.056 408.406C696.832 409.108 700.608 410 704.384 410.956C742.08 420.901 777.344 448.314 799.872 485.99" stroke="#BFE0E0" stroke-miterlimit="10"/>
<path d="M-72.4482 536.671C-53.1202 503.84 -18.6242 486.245 15.9998 488.094C23.4238 488.476 30.9117 489.688 38.2717 491.855C60.2237 498.358 80.9597 512.319 101.696 527.364C113.088 535.588 124.544 543.748 137.024 549.485C140.288 551.015 143.552 552.29 146.88 553.438C165.44 559.749 184 559.494 201.344 552.928C219.264 546.106 235.968 534.823 253.696 524.878C262.784 519.778 271.808 515.315 280.832 511.363C312.576 497.338 347.712 489.688 381.952 487.456C399.04 486.373 415.04 485.671 430.08 487.201C448.512 489.05 464 493.385 479.872 495.298C483.328 495.68 486.848 496.063 490.432 496.19C503.232 496.636 517.632 495.106 531.072 487.265C549.76 476.364 563.264 456.219 579.456 441.684C581.632 439.708 583.872 437.859 586.176 436.138C616.32 412.996 655.68 405.793 694.208 413.124C697.984 413.825 701.76 414.718 705.536 415.674C743.424 425.619 778.816 452.776 801.664 490.389" stroke="#BFE0E0" stroke-miterlimit="10"/>
<path d="M-71.04 549.549C-52.352 516.271 -18.432 497.848 16 498.613C23.424 498.804 30.912 499.76 38.336 501.673C60.48 507.474 81.536 520.798 102.464 535.651C113.92 543.748 125.504 551.908 138.048 557.581C141.312 559.048 144.64 560.386 147.904 561.534C166.528 567.845 185.152 567.526 202.432 560.578C220.288 553.374 236.736 541.708 254.464 531.699C263.552 526.535 272.704 522.136 281.728 518.311C313.664 504.733 349.056 498.23 383.36 496.063C400.576 495.043 416.576 494.023 431.488 494.915C449.792 495.999 465.088 499.123 480.768 499.951C484.16 500.143 487.616 500.206 491.136 500.143C503.68 499.824 517.824 497.72 531.2 489.688C549.824 478.468 563.584 458.578 580.096 444.425C582.336 442.513 584.64 440.728 586.944 439.006C617.536 416.566 656.96 410.128 695.616 417.523C699.392 418.224 703.232 419.116 707.008 420.073C745.024 429.954 780.544 456.984 803.84 494.469" stroke="#BFE0E0" stroke-miterlimit="10"/>
<path d="M-69.5679 562.426C-51.5199 528.703 -18.2399 510.279 16.0641 509.068C23.4881 508.813 30.9761 509.705 38.4001 511.426C60.6721 516.526 82.1121 529.213 103.296 543.875C114.88 551.844 126.528 559.94 139.072 565.678C142.336 567.144 145.664 568.483 148.992 569.63C167.68 575.941 186.368 575.559 203.584 568.291C221.312 560.769 237.568 548.72 255.296 538.648C264.384 533.484 273.6 529.085 282.688 525.388C314.816 512.255 350.464 506.9 384.832 504.86C402.176 503.904 418.112 502.629 433.024 502.884C451.264 503.266 466.368 505.179 481.792 504.86C485.12 504.796 488.512 504.669 491.968 504.35C504.192 503.266 518.144 500.589 531.392 492.301C549.888 480.763 564.032 461.191 580.8 447.358C583.04 445.509 585.408 443.724 587.776 442.066C618.816 420.264 658.304 414.59 697.024 422.113C700.864 422.878 704.64 423.706 708.416 424.663C746.56 434.48 782.272 461.319 805.888 498.74" stroke="#BFE0E0" stroke-miterlimit="10"/>
<path d="M-68.1602 575.368C-50.8162 541.198 -18.0481 520.989 16.0639 519.586C23.4879 519.268 30.9759 519.778 38.4639 521.244C60.8639 525.643 82.6879 537.691 104.128 552.163C115.776 560.068 127.552 568.1 140.16 573.774C143.488 575.24 146.752 576.579 150.08 577.663C168.896 583.974 187.584 583.528 204.736 575.878C222.336 568.036 238.336 555.605 256.128 545.405C265.216 540.178 274.496 535.843 283.648 532.273C315.968 519.523 351.808 515.379 386.304 513.466C403.776 512.574 419.712 510.98 434.496 510.661C452.608 510.279 467.52 510.98 482.688 509.641C485.952 509.323 489.28 509.004 492.672 508.494C504.64 506.645 518.4 503.33 531.52 494.851C549.952 482.994 564.352 463.741 581.44 450.29C583.744 448.505 586.112 446.784 588.544 445.19C620.032 424.089 659.648 419.18 698.432 426.766C702.272 427.531 706.048 428.36 709.824 429.38C748.16 439.198 784 465.845 808 503.139" stroke="#BFE0E0" stroke-miterlimit="10"/>
<path d="M-66.752 588.245C-50.048 553.693 -17.9199 532.528 16.0001 530.105C23.4241 529.595 30.9121 529.786 38.4641 531.061C60.9921 534.759 83.2 546.17 104.832 560.386C116.608 568.164 128.448 576.133 141.12 581.806C144.448 583.273 147.776 584.611 151.104 585.695C169.984 592.006 188.736 591.56 205.824 583.528C223.36 575.304 239.104 562.49 256.896 552.29C266.048 546.999 275.328 542.728 284.544 539.221C317.056 526.918 353.152 523.921 387.712 522.136C405.312 521.308 421.248 519.395 435.904 518.503C453.952 517.355 468.672 516.909 483.584 514.423C486.784 513.913 490.048 513.339 493.376 512.574C505.088 509.896 518.592 506.071 531.648 497.401C549.952 485.225 564.736 466.291 582.144 453.159C584.512 451.374 586.88 449.716 589.376 448.186C621.248 427.786 660.992 423.579 699.904 431.293C703.744 432.058 707.584 432.886 711.36 433.906C749.824 443.66 785.856 470.116 810.176 507.346" stroke="#BFE0E0" stroke-miterlimit="10"/>
<path d="M-65.3438 601.123C-49.2798 566.124 -17.7278 544.066 16.0002 540.56C23.4242 539.795 30.9763 539.795 38.5283 540.815C61.2483 543.811 83.7763 554.585 105.664 568.61C117.568 576.26 129.408 584.165 142.144 589.839C145.472 591.305 148.8 592.644 152.128 593.728C171.072 600.039 189.824 599.529 206.848 591.178C224.256 582.635 239.808 569.439 257.536 559.111C266.688 553.756 276.032 549.549 285.312 546.17C318.016 534.249 354.368 532.464 388.992 530.806C406.72 530.041 422.592 527.874 437.184 526.344C455.104 524.495 469.632 522.838 484.352 519.204C487.488 518.439 490.688 517.61 493.888 516.654C505.344 513.211 518.592 508.813 531.52 499.888C549.76 487.329 564.8 468.778 582.528 456.028C584.896 454.306 587.392 452.713 589.888 451.183C622.208 431.42 662.016 428.041 700.992 435.819C704.832 436.584 708.672 437.476 712.448 438.433C751.04 448.186 787.264 474.451 811.904 511.618" stroke="#BFE0E0" stroke-miterlimit="10"/>
<path d="M-63.936 614.064C-48.576 578.619 -17.6 555.669 16 551.079C23.424 550.059 30.976 549.867 38.528 550.632C61.376 552.927 84.288 563.064 106.368 576.897C118.336 584.42 130.304 592.325 143.104 597.935C146.432 599.401 149.76 600.676 153.152 601.824C172.16 608.071 190.976 607.561 207.936 598.828C225.216 589.966 240.576 576.388 258.304 565.996C267.456 560.578 276.864 556.434 286.208 553.182C319.104 541.707 355.712 541.07 390.4 539.476C408.256 538.711 424.128 536.289 438.592 534.185C456.448 531.571 470.784 528.702 485.184 524.049C488.256 523.029 491.392 522.009 494.528 520.797C505.664 516.59 518.72 511.554 531.584 502.501C549.76 489.624 565.12 471.327 583.104 458.96C585.536 457.302 588.032 455.709 590.592 454.242C623.36 435.181 663.296 432.568 702.336 440.345C706.176 441.11 710.016 442.003 713.856 442.959C752.64 452.713 789.056 478.85 814.08 515.889" stroke="#BFE0E0" stroke-miterlimit="10"/>
<path d="M-62.5283 626.941C-47.8083 591.05 -17.4083 567.208 15.9357 561.598C23.2957 560.323 30.9117 559.876 38.5277 560.386C61.5037 561.98 84.7997 571.479 107.136 585.121C119.232 592.516 131.264 600.358 144.128 605.968C147.456 607.434 150.848 608.709 154.24 609.856C173.376 616.104 192.192 615.53 209.088 606.478C226.304 597.298 241.408 583.273 259.136 572.881C268.352 567.463 277.76 563.319 287.168 560.195C320.256 549.166 357.12 549.676 391.872 548.21C409.856 547.509 425.728 544.768 440.064 542.026C457.792 538.648 471.936 534.631 486.144 528.83C489.152 527.619 492.224 526.344 495.296 524.941C506.176 519.969 519.04 514.359 531.712 505.051C549.76 491.855 565.504 473.878 583.744 461.829C586.24 460.235 588.736 458.705 591.296 457.303C624.512 438.879 664.512 437.03 703.616 444.935C707.456 445.7 711.36 446.593 715.136 447.549C754.048 457.175 790.592 483.121 815.936 520.096" stroke="#BFE0E0" stroke-miterlimit="10"/>
<path d="M-61.1201 639.819C-47.0401 603.481 -17.2801 578.746 15.9359 572.053C23.2959 570.586 30.9119 569.885 38.5919 570.14C61.7599 571.033 85.3759 579.894 107.968 593.345C120.192 600.612 132.288 608.454 145.152 614C148.48 615.466 151.872 616.741 155.264 617.889C174.464 624.136 193.344 623.499 210.176 614.128C227.264 604.565 242.176 590.221 259.904 579.703C269.12 574.22 278.592 570.14 288.064 567.144C321.344 556.498 358.4 558.219 393.28 556.88C411.392 556.242 427.264 553.182 441.472 549.867C459.072 545.787 473.088 540.56 486.976 533.611C489.92 532.145 492.928 530.679 495.936 529.021C506.56 523.284 519.168 517.1 531.776 507.601C549.76 494.086 565.76 476.427 584.32 464.761C586.816 463.167 589.376 461.701 592 460.363C625.6 442.64 665.728 441.556 704.96 449.525C708.864 450.29 712.704 451.183 716.544 452.139C755.584 461.765 792.32 487.52 818.048 524.367" stroke="#BFE0E0" stroke-miterlimit="10"/>
<path d="M-59.7119 652.76C-46.3359 615.976 -17.0879 590.285 15.9361 582.571C23.2961 580.85 30.9121 579.894 38.5921 579.958C61.8881 580.149 85.8881 588.436 108.672 601.632C120.96 608.772 133.184 616.55 146.112 622.16C149.504 623.626 152.832 624.901 156.288 625.985C175.552 632.232 194.496 631.531 211.264 621.778C228.224 611.896 242.944 597.17 260.608 586.588C269.824 581.041 279.36 577.025 288.896 574.156C322.368 563.956 359.68 566.825 394.624 565.614C412.864 565.04 428.672 561.661 442.88 557.773C460.416 552.928 474.176 546.553 487.872 538.52C490.752 536.799 493.696 535.078 496.64 533.229C507.008 526.726 519.36 519.905 531.904 510.215C549.76 496.381 566.144 479.041 584.96 467.694C587.52 466.164 590.144 464.761 592.768 463.423C626.816 446.338 667.072 446.019 706.368 454.115C710.272 454.944 714.112 455.773 717.952 456.729C757.12 466.291 794.048 491.855 820.096 528.639" stroke="#BFE0E0" stroke-miterlimit="10"/>
<path d="M-58.2402 665.638C-45.5042 628.408 -16.8962 601.824 15.9358 593.09C23.2958 591.114 30.9118 589.966 38.6558 589.775C62.0798 589.265 86.4638 596.915 109.504 609.92C121.92 616.933 134.208 624.646 147.2 630.256C150.592 631.723 153.984 632.998 157.376 634.081C176.704 640.329 195.712 639.564 212.416 629.491C229.312 619.291 243.776 604.119 261.44 593.473C270.72 587.863 280.256 583.91 289.92 581.169C323.648 571.351 361.152 575.431 396.16 574.348C414.528 573.838 430.336 570.204 444.416 565.678C461.824 560.068 475.456 552.545 488.896 543.365C491.712 541.453 494.592 539.476 497.472 537.436C507.52 530.169 519.744 522.774 532.096 512.893C549.888 498.74 566.528 481.719 585.664 470.69C588.288 469.224 590.912 467.821 593.6 466.546C628.096 450.163 668.416 450.609 707.776 458.769C711.68 459.598 715.52 460.426 719.424 461.383C758.784 470.945 795.84 496.318 822.208 533.038" stroke="#BFE0E0" stroke-miterlimit="10"/>
<path d="M-56.832 678.515C-44.736 640.903 -16.704 613.363 15.936 603.545C23.296 601.314 30.912 599.911 38.72 599.529C62.336 598.318 87.04 605.33 110.336 618.144C122.816 625.029 135.168 632.743 148.224 638.289C151.616 639.755 155.008 641.03 158.464 642.114C177.856 648.361 196.928 647.533 213.504 637.078C230.272 626.495 244.544 611.004 262.208 600.294C271.488 594.62 281.088 590.731 290.816 588.118C324.736 578.746 362.496 583.974 397.568 582.954C416 582.508 431.872 578.555 445.824 573.455C463.168 567.08 476.608 558.41 489.728 548.146C492.48 545.979 495.296 543.811 498.048 541.516C507.84 533.484 519.808 525.515 532.096 515.379C549.76 500.844 566.784 484.205 586.24 473.559C588.864 472.156 591.552 470.818 594.304 469.606C629.248 453.86 669.632 455.071 709.12 463.359C713.024 464.188 716.928 465.08 720.768 465.973C760.256 475.471 797.504 500.653 824.256 537.309" stroke="#BFE0E0" stroke-miterlimit="10"/>
<path d="M-55.4238 691.456C-44.0318 653.398 -16.5758 624.901 15.9362 614.064C23.2962 611.641 30.9122 609.984 38.7202 609.346C62.4642 607.434 87.4882 613.809 111.04 626.431C123.648 633.189 136.064 640.839 149.184 646.385C152.576 647.851 155.968 649.126 159.424 650.21C178.944 656.458 198.016 655.565 214.528 644.791C231.232 633.89 245.248 618.016 262.912 607.179C272.192 601.441 281.856 597.616 291.648 595.066C325.76 586.141 363.776 592.516 398.912 591.624C417.472 591.241 433.344 586.97 447.168 581.233C464.384 574.156 477.696 564.275 490.56 552.864C493.248 550.505 496 548.083 498.688 545.533C508.224 536.735 519.936 528.129 532.16 517.865C549.76 503.011 567.04 486.628 586.816 476.364C589.504 474.961 592.192 473.686 595.008 472.539C630.336 457.43 670.912 459.47 710.464 467.758C714.368 468.586 718.272 469.479 722.176 470.371C761.792 479.806 799.232 504.86 826.304 541.389" stroke="#BFE0E0" stroke-miterlimit="10"/>
<path d="M-54.0161 704.334C-43.2641 665.829 -16.3841 636.44 15.9359 624.583C23.2959 621.905 30.9119 619.993 38.7839 619.164C62.6559 616.486 88.0639 622.288 111.872 634.719C124.544 641.349 137.088 648.999 150.272 654.481C153.664 655.884 157.12 657.223 160.576 658.306C180.16 664.49 199.296 663.661 215.744 652.505C232.32 641.285 246.08 624.965 263.744 614.128C273.088 608.39 282.752 604.565 292.608 602.143C326.912 593.6 365.12 601.186 400.384 600.421C419.072 600.039 434.88 595.513 448.64 589.201C465.728 581.36 478.848 570.331 491.52 557.773C494.144 555.159 496.832 552.481 499.456 549.804C508.736 540.241 520.192 531.061 532.288 520.543C549.76 505.37 567.424 489.305 587.456 479.36C590.144 478.021 592.96 476.81 595.712 475.663C631.488 461.255 672.128 463.996 711.744 472.411C715.648 473.24 719.552 474.133 723.456 475.025C763.264 484.46 800.832 509.259 828.288 545.724" stroke="#BFE0E0" stroke-miterlimit="10"/>
<path d="M-52.6079 717.211C-42.4959 678.26 -16.2559 647.915 15.8721 635.038C23.2321 632.105 30.9121 630.001 38.7841 628.918C62.8481 625.539 88.5761 630.766 112.576 642.943C125.376 649.445 137.984 657.031 151.168 662.514C154.56 663.916 158.016 665.191 161.472 666.339C181.12 672.523 200.32 671.63 216.704 660.091C233.216 648.553 246.72 631.85 264.384 620.885C273.728 615.084 283.456 611.323 293.376 609.028C327.872 600.931 366.336 609.665 401.664 609.028C420.48 608.709 436.288 603.864 449.92 596.979C466.944 588.373 479.872 576.196 492.224 562.554C494.784 559.685 497.408 556.816 499.968 553.884C508.992 543.556 520.192 533.739 532.224 523.093C549.632 507.601 567.616 491.855 587.904 482.293C590.656 481.018 593.472 479.806 596.288 478.723C632.512 464.953 673.216 468.523 712.96 477.001C716.864 477.83 720.832 478.723 724.736 479.679C764.672 489.05 802.432 513.721 830.208 550.059" stroke="#BFE0E0" stroke-miterlimit="10"/>
<path d="M-51.2002 730.153C-41.7922 690.755 -16.1282 659.454 15.8718 645.62C23.2318 642.433 30.9118 640.074 38.7838 638.735C62.9758 634.655 89.0878 639.245 113.344 651.166C126.272 657.541 138.944 665.064 152.192 670.546C155.584 671.949 159.04 673.224 162.56 674.308C182.272 680.491 201.536 679.535 217.856 667.678C234.24 655.756 247.552 638.735 265.216 627.706C274.56 621.841 284.352 618.144 294.336 615.976C329.024 608.262 367.744 618.208 403.136 617.698C422.08 617.443 437.888 612.279 451.392 604.82C468.288 595.449 481.088 582.125 493.184 567.335C495.68 564.275 498.24 561.151 500.736 557.964C509.504 546.871 520.512 536.48 532.416 525.579C549.696 509.769 568 494.341 588.608 485.098C591.424 483.823 594.24 482.739 597.12 481.719C633.728 468.586 674.624 472.921 714.432 481.528C718.4 482.356 722.304 483.249 726.208 484.205C766.272 493.576 804.224 518.056 832.32 554.33" stroke="#BFE0E0" stroke-miterlimit="10"/>
<path d="M-49.792 743.03C-41.024 703.186 -15.936 670.993 15.872 656.075C23.168 652.633 30.912 650.082 38.848 648.489C63.168 643.707 89.664 647.66 114.176 659.39C127.168 665.638 139.968 673.16 153.28 678.643C156.736 680.045 160.192 681.32 163.648 682.404C183.424 688.587 202.752 687.567 218.944 675.391C235.2 663.151 248.32 645.684 265.984 634.655C275.392 628.726 285.184 625.093 295.232 623.053C330.112 615.785 369.088 626.877 404.544 626.495C423.616 626.304 439.36 620.885 452.864 612.789C469.632 602.716 482.304 588.181 494.08 572.244C496.512 568.929 498.944 565.614 501.376 562.235C509.824 550.378 520.64 539.413 532.416 528.32C549.632 512.128 568.256 497.083 589.12 488.158C591.936 486.946 594.816 485.863 597.76 484.906C634.816 472.475 675.776 477.575 715.648 486.245C719.616 487.074 723.52 487.966 727.488 488.923C767.744 498.23 805.824 522.519 834.304 558.729" stroke="#BFE0E0" stroke-miterlimit="10"/>
<path d="M-48.3838 755.908C-40.2558 715.618 -15.8078 682.468 15.8082 666.53C23.1042 662.833 30.8482 660.028 38.8482 658.243C63.2962 652.76 90.1762 656.075 114.88 667.614C128 673.798 140.8 681.193 154.176 686.675C157.632 688.078 161.088 689.353 164.608 690.436C184.512 696.62 203.84 695.6 219.968 682.978C236.16 670.419 249.024 652.569 266.624 641.413C276.032 635.42 285.888 631.85 296 629.938C331.072 623.116 370.304 635.356 405.824 635.038C425.024 634.91 440.768 629.173 454.144 620.503C470.848 609.665 483.328 593.983 494.848 576.961C497.216 573.455 499.584 569.885 501.952 566.251C510.144 553.629 520.704 542.026 532.416 530.743C549.504 514.231 568.448 499.441 589.632 490.963C592.512 489.815 595.456 488.795 598.4 487.839C635.904 476.045 676.928 481.91 716.928 490.708C720.896 491.6 724.864 492.493 728.768 493.385C769.152 502.629 807.424 526.79 836.224 562.873" stroke="#BFE0E0" stroke-miterlimit="10"/>
<path d="M-46.9121 768.849C-39.4881 728.176 -15.6161 694.006 15.8719 677.113C23.1679 673.16 30.9119 670.164 38.9759 668.124C63.6159 661.876 90.8159 664.618 115.776 675.965C128.96 682.021 141.888 689.353 155.328 694.835C158.784 696.238 162.24 697.513 165.76 698.596C185.728 704.78 205.12 703.696 221.184 690.755C237.312 677.878 249.92 659.645 267.52 648.425C276.928 642.433 286.848 638.863 297.024 637.078C332.288 630.639 371.712 644.09 407.36 643.899C426.688 643.835 442.368 637.715 455.68 628.471C472.256 616.805 484.608 599.975 495.872 581.87C498.176 578.109 500.544 574.284 502.784 570.459C510.784 557.071 521.024 544.895 532.608 533.42C549.568 516.59 568.896 502.119 590.4 493.959C593.344 492.875 596.288 491.855 599.296 490.963C637.184 479.743 678.4 486.5 718.4 495.298C722.368 496.19 726.336 497.083 730.24 497.975C770.752 507.219 809.216 531.125 838.4 567.144" stroke="#BFE0E0" stroke-miterlimit="10"/>
<path d="M-45.5039 781.726C-38.7199 740.608 -15.4879 705.481 15.8721 687.568C23.1681 683.424 30.9121 680.109 38.9761 677.878C63.7441 670.865 91.3281 673.096 116.544 684.189C129.856 690.118 142.848 697.449 156.352 702.868C159.808 704.27 163.328 705.545 166.848 706.629C186.88 712.813 206.336 711.665 222.336 698.341C238.336 685.145 250.752 666.466 268.352 655.183C277.76 649.126 287.744 645.684 297.984 643.899C333.44 637.906 373.12 652.505 408.832 652.441C428.288 652.441 443.968 646.066 457.152 636.185C473.6 623.818 485.824 605.776 496.768 586.524C499.008 582.508 501.312 578.491 503.488 574.411C511.168 560.259 521.216 547.445 532.736 535.779C549.568 518.566 569.216 504.478 591.04 496.636C593.984 495.553 596.992 494.66 600.064 493.831C638.4 483.313 679.68 490.771 719.808 499.696C723.776 500.589 727.744 501.481 731.712 502.374C772.352 511.554 811.008 535.333 840.512 571.224" stroke="#BFE0E0" stroke-miterlimit="10"/>
<path d="M-44.0962 794.604C-38.0162 753.039 -15.3602 717.02 15.8718 698.022C23.1678 693.624 30.9118 690.117 39.0398 687.631C63.9358 679.917 91.9038 681.511 117.312 692.412C130.752 698.214 143.808 705.481 157.312 710.9C160.768 712.302 164.288 713.578 167.808 714.661C187.904 720.781 207.424 719.634 223.36 705.991C239.232 692.412 251.456 673.415 269.056 662.068C278.528 655.948 288.512 652.569 298.816 650.911C334.464 645.301 374.4 661.175 410.24 661.175C429.824 661.175 445.504 654.545 458.56 644.09C474.88 630.958 486.976 611.769 497.664 591.432C499.904 587.225 502.016 582.954 504.192 578.683C511.616 563.765 521.408 550.378 532.864 538.52C549.632 520.989 569.6 507.219 591.68 499.76C594.688 498.74 597.696 497.848 600.768 497.083C639.552 487.201 680.896 495.489 721.152 504.478C725.12 505.37 729.088 506.262 733.056 507.155C773.888 516.335 812.672 539.859 842.56 575.686" stroke="#BFE0E0" stroke-miterlimit="10"/>
<path d="M-42.688 807.545C-37.248 765.534 -15.296 728.495 15.808 708.605C23.04 703.951 30.848 700.19 39.04 697.513C64.064 689.098 92.416 690.054 118.08 700.764C131.584 706.438 144.768 713.705 158.336 719.06C161.792 720.463 165.312 721.738 168.896 722.758C189.12 728.878 208.576 727.666 224.448 713.705C240.256 699.808 252.224 680.428 269.76 668.953C279.232 662.769 289.28 659.454 299.648 657.924C335.488 652.76 375.68 669.781 411.584 669.909C431.296 669.973 446.976 663.024 459.904 651.995C476.16 638.098 488.064 617.761 498.432 596.278C500.608 591.815 502.656 587.353 504.768 582.826C511.936 567.144 521.536 553.183 532.8 541.07C549.504 523.22 569.792 509.769 592.128 502.629C595.2 501.673 598.272 500.844 601.344 500.079C640.576 490.899 682.048 499.888 722.304 509.004C726.272 509.896 730.304 510.789 734.272 511.681C775.232 520.798 814.208 544.194 844.416 579.958" stroke="#BFE0E0" stroke-miterlimit="10"/>
<path d="M-41.2803 820.423C-36.4803 777.965 -15.1043 740.034 15.8077 719.06C45.3117 699.043 84.4797 695.026 118.848 708.924C135.936 715.873 152.448 725.499 169.92 730.79C190.208 736.91 209.728 735.635 225.536 721.291C241.216 707.075 252.992 687.249 270.528 675.774C312.832 648.106 366.592 678.26 412.992 678.579C462.848 678.898 486.336 632.615 505.472 586.906C523.968 542.791 560.128 512.128 602.112 503.075C645.696 493.704 691.584 506.454 735.68 516.208C776.768 525.324 815.872 548.529 846.464 584.165" stroke="#BFE0E0" stroke-miterlimit="10"/>
</g>
<defs>
<linearGradient id="paint0_linear_1_1635" x1="384" y1="0" x2="384" y2="1132.57" gradientUnits="userSpaceOnUse">
<stop offset="0.0784574" stop-color="#FF9900" stop-opacity="0.1"/>
<stop offset="0.9" stop-color="#0066CC" stop-opacity="0.24"/>
</linearGradient>
</defs>
</svg>
