<svg width="32" height="32" viewBox="0 0 32 32" fill="none" xmlns="http://www.w3.org/2000/svg">
<path d="M24.8 29.3334H7.20004C6.77846 29.3334 6.36103 29.2501 5.97175 29.0883C5.58246 28.9265 5.22898 28.6893 4.93162 28.3905C4.63426 28.0916 4.39889 27.737 4.23902 27.3469C4.07915 26.9568 3.99793 26.539 4.00004 26.1174V11.1094C4.00004 10.6001 4.24004 10.1307 4.64004 9.82272L15.0134 2.98806C15.2899 2.77931 15.6269 2.66638 15.9734 2.66638C16.3198 2.66638 16.6569 2.77931 16.9334 2.98806L27.36 9.82272C27.76 10.1307 28 10.6001 28 11.1094V26.1174C28.0021 26.539 27.9209 26.9568 27.7611 27.3469C27.6012 27.737 27.3658 28.0916 27.0685 28.3905C26.7711 28.6893 26.4176 28.9265 26.0283 29.0883C25.639 29.2501 25.2216 29.3334 24.8 29.3334Z" stroke="#F5F5F5" stroke-width="1.5" stroke-miterlimit="10" stroke-linejoin="round"/>
<path d="M13.0667 16H18.9333C19.52 16 20 16.48 20 17.0667V29.3333H12V17.0667C12 16.48 12.48 16 13.0667 16Z" stroke="#F5F5F5" stroke-width="1.5" stroke-miterlimit="10" stroke-linejoin="round"/>
</svg>
