<svg width="27" height="27" viewBox="0 0 27 27" fill="none" xmlns="http://www.w3.org/2000/svg">
<path d="M17.7693 26.6667C15.7356 26.6667 13.9413 26.072 12.3867 24.8827C10.832 23.6933 9.78267 22.168 9.23867 20.3067C9.91422 20.3164 10.5529 20.2676 11.1547 20.16C11.7556 20.0524 12.3467 19.8791 12.928 19.64H19.8307C19.8698 19.3013 19.8996 18.9702 19.92 18.6467C19.9396 18.324 19.9493 17.9933 19.9493 17.6547C19.9493 17.3782 19.9396 17.088 19.92 16.784C19.8996 16.48 19.8698 16.184 19.8307 15.896H17.916C18.0831 15.6836 18.24 15.4707 18.3867 15.2573C18.5333 15.044 18.6773 14.8124 18.8187 14.5627H24.5947C24.1502 13.6391 23.5484 12.8333 22.7893 12.1453C22.0311 11.4573 21.16 10.9462 20.176 10.612C20.2196 10.3898 20.2538 10.1649 20.2787 9.93733C20.3036 9.70978 20.3133 9.47644 20.308 9.23733C22.1676 9.78044 23.692 10.8293 24.8813 12.384C26.0716 13.9413 26.6667 15.7364 26.6667 17.7693C26.6667 20.2404 25.8018 22.3413 24.072 24.072C22.3413 25.8018 20.2404 26.6667 17.7693 26.6667ZM16.1413 25.0613C15.7636 24.3947 15.4453 23.7222 15.1867 23.044C14.9271 22.3649 14.7253 21.6751 14.5813 20.9747H10.9693C11.4493 22.0253 12.1404 22.9142 13.0427 23.6413C13.9449 24.3684 14.9778 24.8418 16.1413 25.0613ZM17.7693 25.2467C18.2404 24.5862 18.6222 23.8982 18.9147 23.1827C19.2062 22.4662 19.4356 21.7302 19.6027 20.9747H15.936C16.104 21.7302 16.3307 22.4658 16.616 23.1813C16.9004 23.8978 17.2849 24.5871 17.7693 25.2467ZM19.3973 25.0613C20.5618 24.8409 21.5991 24.3676 22.5093 23.6413C23.4196 22.9151 24.1147 22.0262 24.5947 20.9747H20.9507C20.7889 21.6751 20.584 22.3649 20.336 23.044C20.088 23.7222 19.7751 24.3947 19.3973 25.0613ZM21.164 19.6413H25.0973C25.1756 19.3507 25.2347 19.0484 25.2747 18.7347C25.3138 18.4209 25.3333 18.0991 25.3333 17.7693C25.3333 17.4396 25.3138 17.1178 25.2747 16.804C25.2356 16.4902 25.1764 16.188 25.0973 15.8973H21.164C21.2031 16.1844 21.2324 16.48 21.252 16.784C21.2716 17.0862 21.2813 17.3813 21.2813 17.6693C21.2813 18.0053 21.2716 18.3342 21.252 18.656C21.2324 18.976 21.2031 19.3044 21.164 19.6413ZM8.89867 17.7947C6.42756 17.7947 4.32667 16.9298 2.596 15.2C0.865333 13.4702 0 11.3698 0 8.89867C0 6.42756 0.864889 4.32667 2.59467 2.596C4.32444 0.865333 6.42489 0 8.896 0C11.3671 0 13.468 0.864889 15.1987 2.59467C16.9293 4.32444 17.7947 6.42489 17.7947 8.896C17.7947 11.3671 16.9298 13.468 15.2 15.1987C13.4702 16.9293 11.3698 17.7947 8.89867 17.7947ZM8.90267 16.4613C10.9898 16.4613 12.7716 15.7218 14.248 14.2427C15.7236 12.7636 16.4613 10.98 16.4613 8.892C16.4613 6.80489 15.7218 5.02355 14.2427 3.548C12.7627 2.07156 10.9791 1.33333 8.892 1.33333C6.80489 1.33333 5.02311 2.07289 3.54667 3.552C2.07111 5.03289 1.33333 6.81644 1.33333 8.90267C1.33333 10.9889 2.07289 12.7707 3.552 14.248C5.032 15.7236 6.81556 16.4613 8.90267 16.4613ZM5.74267 7.97467C6.00133 7.97467 6.22844 7.88133 6.424 7.69467C6.61955 7.508 6.71733 7.27689 6.71733 7.00133C6.71733 6.72578 6.61955 6.49422 6.424 6.30667C6.22844 6.11911 5.99733 6.02578 5.73067 6.02667C5.464 6.02755 5.23733 6.12089 5.05067 6.30667C4.86311 6.49244 4.76933 6.72356 4.76933 7C4.76933 7.27644 4.86267 7.50756 5.04933 7.69333C5.236 7.87911 5.46711 7.97378 5.74267 7.97467ZM8.91067 13.4307C9.78089 13.4307 10.5769 13.2289 11.2987 12.8253C12.0204 12.4218 12.6049 11.8902 13.052 11.2307L4.744 11.204C5.19022 11.8822 5.77867 12.4227 6.50933 12.8253C7.24 13.2289 8.04133 13.4307 8.91067 13.4307ZM12.0773 7.97467C12.3351 7.97467 12.5618 7.88133 12.7573 7.69467C12.9529 7.508 13.0507 7.27689 13.0507 7.00133C13.0507 6.72578 12.9529 6.49422 12.7573 6.30667C12.5618 6.11911 12.3307 6.02578 12.064 6.02667C11.7973 6.02755 11.5707 6.12089 11.384 6.30667C11.1973 6.49244 11.1036 6.72356 11.1027 7C11.1018 7.27644 11.1951 7.50756 11.3827 7.69333C11.5702 7.87911 11.8013 7.97244 12.076 7.97333" fill="#F5F5F5"/>
</svg>
