<svg width="32" height="32" viewBox="0 0 32 32" fill="none" xmlns="http://www.w3.org/2000/svg">
<path d="M16 18.6667C17.4728 18.6667 18.6667 17.4728 18.6667 16C18.6667 14.5273 17.4728 13.3334 16 13.3334C14.5273 13.3334 13.3334 14.5273 13.3334 16C13.3334 17.4728 14.5273 18.6667 16 18.6667Z" stroke="#F5F5F5"/>
<path d="M7.19865 7.84005L7.53198 7.26138C7.40111 7.18572 7.24841 7.15678 7.09893 7.17931C6.94945 7.20184 6.81207 7.27451 6.70931 7.38538L7.19865 7.84005ZM4.53331 12.4587L3.89598 12.2614C3.85162 12.4057 3.85754 12.5607 3.91276 12.7012C3.96798 12.8417 4.06924 12.9593 4.19998 13.0347L4.53331 12.4587ZM4.53065 19.54L4.19731 18.9627C4.0663 19.0382 3.96484 19.156 3.9096 19.2968C3.85436 19.4376 3.84862 19.5929 3.89331 19.7374L4.53065 19.54ZM7.19731 24.1587L6.70798 24.612C6.81073 24.7229 6.94812 24.7956 7.0976 24.8181C7.24708 24.8407 7.39978 24.8117 7.53065 24.736L7.19731 24.1587ZM13.3306 27.6987H12.664C12.6639 27.8501 12.7154 27.997 12.8099 28.1153C12.9044 28.2335 13.0363 28.3161 13.184 28.3494L13.3306 27.6987ZM18.6653 27.7014L18.8133 28.352C18.9607 28.3185 19.0924 28.2358 19.1866 28.1176C19.2809 27.9993 19.3321 27.8526 19.332 27.7014H18.6653ZM24.8 24.1601L24.4666 24.7374C24.5975 24.813 24.7502 24.842 24.8997 24.8195C25.0492 24.7969 25.1866 24.7243 25.2893 24.6134L24.8 24.1601ZM27.464 19.5387L28.1013 19.736C28.1457 19.5918 28.1398 19.4367 28.0845 19.2962C28.0293 19.1557 27.928 19.0382 27.7973 18.9627L27.464 19.5387ZM27.4666 12.4574L27.8 13.0347C27.931 12.9592 28.0324 12.8414 28.0877 12.7006C28.1429 12.5599 28.1487 12.4045 28.104 12.26L27.4666 12.4574ZM24.8 7.83738L25.2893 7.38405C25.1866 7.27317 25.0492 7.20051 24.8997 7.17798C24.7502 7.15545 24.5975 7.18439 24.4666 7.26005L24.8 7.83738ZM18.6666 4.30005H19.3333C19.3332 4.14908 19.2818 4.00264 19.1875 3.88468C19.0933 3.76672 18.9618 3.68423 18.8146 3.65072L18.6666 4.30005ZM13.3333 4.29738L13.1853 3.64672C13.0376 3.68002 12.9057 3.76259 12.8112 3.88085C12.7167 3.9991 12.6652 4.146 12.6653 4.29738H13.3333ZM5.17065 12.656C5.67132 11.0311 6.53123 9.53956 7.68665 8.29205L6.70931 7.38538C5.41749 8.7795 4.45596 10.4451 3.89598 12.2614L5.17065 12.656ZM6.18398 21.6667C5.75997 20.9329 5.41962 20.1538 5.16931 19.344L3.89465 19.7387C4.17512 20.6434 4.55617 21.5137 5.03065 22.3334L6.18398 21.6667ZM7.68798 23.7067C7.11242 23.085 6.60704 22.4007 6.18398 21.6667L5.03065 22.3334C5.50324 23.1537 6.06631 23.9185 6.70931 24.6134L7.68798 23.7067ZM18.5186 27.0534C16.8606 27.4304 15.139 27.4295 13.4813 27.0507L13.1853 28.3494C15.0377 28.7729 16.9617 28.7743 18.8146 28.3534L18.5186 27.0534ZM26.8293 19.344C26.3286 20.969 25.4687 22.4605 24.3133 23.708L25.2906 24.6147C26.5825 23.2206 27.544 21.5536 28.104 19.7374L26.8293 19.344ZM25.816 10.3334C26.248 11.0841 26.5853 11.8627 26.832 12.656L28.1053 12.2614C27.8248 11.3567 27.4438 10.4864 26.9693 9.66672L25.816 10.3334ZM24.312 8.29338C24.8875 8.91508 25.3929 9.59936 25.816 10.3334L26.9693 9.66672C26.4967 8.84637 25.9336 8.0816 25.2906 7.38672L24.312 8.29338ZM13.4813 4.94672C15.1394 4.56971 16.861 4.57062 18.5186 4.94938L18.8146 3.65072C16.9623 3.22716 15.0383 3.22579 13.1853 3.64672L13.4813 4.94672ZM14 6.76272V4.29605H12.6666V6.76272H14ZM9.66665 8.49338L7.53198 7.26138L6.86531 8.41472L8.99865 9.64805L9.66665 8.49338ZM6.33331 17.7307L4.19731 18.9627L4.86531 20.1174L6.99865 18.8854L6.33331 17.7307ZM6.99998 13.1121L4.86665 11.8814L4.19998 13.0361L6.33331 14.2667L6.99998 13.1121ZM14 27.6987V25.236H12.6666V27.6987H14ZM8.99998 22.3494L6.86531 23.5814L7.53198 24.736L9.66531 23.504L8.99998 22.3494ZM25.1346 23.5827L23 22.3494L22.3333 23.5054L24.4666 24.7374L25.1346 23.5827ZM19.3333 27.7027V25.236H18V27.7027H19.3333ZM27.1346 11.88L25 13.1121L25.6666 14.2667L27.8 13.0347L27.1346 11.88ZM27.7986 18.9614L25.6666 17.7334L25 18.8881L27.1333 20.1187L27.7986 18.9614ZM19.3333 6.76272V4.30005H18V6.76272H19.3333ZM24.468 7.26138L22.3333 8.49472L23 9.64938L25.1346 8.41605L24.468 7.26138ZM18 6.76272C18 9.32805 20.7773 10.9321 23 9.64938L22.3333 8.49472C22.0292 8.67031 21.6842 8.76272 21.333 8.76267C20.9818 8.76261 20.6368 8.67008 20.3328 8.4944C20.0287 8.31871 19.7762 8.06605 19.6008 7.76183C19.4253 7.45762 19.3331 7.1139 19.3333 6.76272H18ZM25 13.1134C22.7773 14.3961 22.7773 17.604 25 18.8867L25.6666 17.732C25.3626 17.5565 25.1102 17.304 24.9347 17C24.7591 16.696 24.6667 16.3511 24.6667 16.0001C24.6667 15.649 24.7591 15.3041 24.9347 15.0001C25.1102 14.6961 25.3626 14.4436 25.6666 14.2681L25 13.1134ZM23 22.3507C20.7773 21.0681 18 22.6694 18 25.236H19.3333C19.3333 24.885 19.4257 24.5414 19.6013 24.2374C19.7768 23.9334 20.0293 23.6809 20.3333 23.5054C20.6374 23.3298 20.9823 23.2374 21.3333 23.2374C21.6844 23.2374 22.0293 23.3298 22.3333 23.5054L23 22.3507ZM14 25.236C14 22.6707 11.2226 21.0681 8.99998 22.3507L9.66665 23.5054C9.97078 23.3298 10.3158 23.2374 10.667 23.2374C11.0181 23.2375 11.3631 23.33 11.6672 23.5057C11.9713 23.6814 12.2237 23.934 12.3992 24.2383C12.5746 24.5425 12.6669 24.8875 12.6666 25.2387L14 25.236ZM6.99998 18.8867C9.22265 17.604 9.22265 14.3961 6.99998 13.1134L6.33331 14.2681C7.66665 15.0374 7.66665 16.9601 6.33331 17.7307L6.99998 18.8867ZM12.6666 6.76272C12.6664 7.11367 12.5738 7.45839 12.3982 7.76223C12.2225 8.06608 11.97 8.31836 11.666 8.49373C11.3621 8.6691 11.0173 8.76139 10.6663 8.76133C10.3153 8.76127 9.97058 8.66886 9.66665 8.49338L8.99998 9.64938C11.2226 10.9321 14 9.32938 14 6.76272H12.6666Z" fill="#F5F5F5"/>
</svg>
